<?xml version="1.0" encoding="UTF-8"?>
<svg xmlns="http://www.w3.org/2000/svg" width="64" height="64" viewBox="0 0 64 64">
  <title>Kashmir Lab - Circle K</title>
  
  <circle cx="32.0" cy="32.0" r="31.2" fill="#ffffff" stroke="#1a1815" stroke-width="1.6"/>
  <path d="M25.90 33.78 37.89 21.72Q38.20 21.40 38.28 21.14Q38.36 20.87 38.20 20.69Q38.04 20.51 37.63 20.42L36.42 20.22Q36.11 20.15 35.98 20.04Q35.86 19.93 35.86 19.76Q35.86 19.55 36.02 19.44Q36.19 19.34 36.50 19.34H42.06Q42.40 19.34 42.55 19.44Q42.70 19.55 42.70 19.76Q42.70 19.94 42.54 20.05Q42.39 20.15 41.88 20.25Q41.57 20.32 41.32 20.41Q41.06 20.50 40.78 20.69Q40.49 20.87 40.11 21.20Q39.74 21.53 39.18 22.07L26.40 34.81ZM30.89 29.45 32.88 27.86 41.00 40.15Q41.33 40.64 41.77 40.90Q42.21 41.16 42.85 41.26Q43.47 41.37 43.65 41.50Q43.83 41.63 43.83 41.83Q43.83 42.01 43.66 42.13Q43.48 42.24 43.17 42.24H36.60Q36.27 42.24 36.11 42.13Q35.96 42.01 35.96 41.81Q35.96 41.63 36.09 41.51Q36.22 41.39 36.52 41.36L37.79 41.16Q38.18 41.08 38.22 40.83Q38.25 40.59 37.99 40.20ZM27.26 40.34Q27.26 40.67 27.46 40.87Q27.66 41.08 28.02 41.14L29.24 41.34Q29.53 41.41 29.65 41.52Q29.78 41.63 29.78 41.81Q29.78 42.01 29.64 42.13Q29.50 42.24 29.17 42.24H22.72Q22.41 42.24 22.27 42.13Q22.13 42.01 22.13 41.81Q22.13 41.45 22.66 41.34L23.90 41.14Q24.29 41.08 24.50 40.87Q24.70 40.67 24.70 40.34V21.23Q24.70 20.91 24.50 20.70Q24.29 20.50 23.90 20.43L22.66 20.24Q22.13 20.12 22.13 19.76Q22.13 19.55 22.27 19.44Q22.41 19.34 22.72 19.34H29.24Q29.56 19.34 29.70 19.44Q29.84 19.55 29.84 19.76Q29.84 20.12 29.30 20.24L28.06 20.43Q27.68 20.50 27.47 20.70Q27.26 20.91 27.26 21.23Z" fill="#1a1815"/>
</svg>