<?xml version="1.0" encoding="UTF-8"?>
<svg xmlns="http://www.w3.org/2000/svg" width="512" height="512" viewBox="0 0 512 512">
  <title>Kashmir Lab - Circle K</title>
  
  <circle cx="256.0" cy="256.0" r="249.6" fill="#1a1815" stroke="#d4c4ae" stroke-width="12.8"/>
  <path d="M207.18 270.26 303.12 173.80Q305.60 171.18 306.26 169.09Q306.91 166.99 305.60 165.55Q304.29 164.11 301.02 163.33L291.34 161.76Q288.85 161.23 287.87 160.32Q286.89 159.40 286.89 158.09Q286.89 156.39 288.20 155.54Q289.51 154.69 291.99 154.69H336.49Q339.24 154.69 340.42 155.54Q341.60 156.39 341.60 158.09Q341.60 159.53 340.35 160.38Q339.11 161.23 335.05 162.02Q332.56 162.54 330.54 163.26Q328.51 163.98 326.22 165.49Q323.93 166.99 320.92 169.61Q317.91 172.23 313.46 176.55L211.24 278.50ZM247.10 235.57 263.07 222.88 327.98 321.17Q330.60 325.09 334.13 327.19Q337.67 329.28 342.77 330.07Q347.75 330.98 349.19 332.03Q350.63 333.08 350.63 334.65Q350.63 336.09 349.25 337.00Q347.88 337.92 345.39 337.92H292.78Q290.16 337.92 288.92 337.00Q287.67 336.09 287.67 334.52Q287.67 333.08 288.72 332.10Q289.77 331.11 292.12 330.85L302.33 329.28Q305.47 328.63 305.73 326.66Q306.00 324.70 303.90 321.56ZM218.04 322.74Q218.04 325.36 219.68 326.99Q221.32 328.63 224.20 329.15L233.88 330.72Q236.24 331.25 237.22 332.16Q238.20 333.08 238.20 334.52Q238.20 336.09 237.09 337.00Q235.98 337.92 233.36 337.92H181.79Q179.30 337.92 178.19 337.00Q177.08 336.09 177.08 334.52Q177.08 331.64 181.27 330.72L191.21 329.15Q194.36 328.63 195.99 326.99Q197.63 325.36 197.63 322.74V169.87Q197.63 167.25 195.99 165.62Q194.36 163.98 191.21 163.46L181.27 161.89Q177.08 160.97 177.08 158.09Q177.08 156.39 178.19 155.54Q179.30 154.69 181.79 154.69H233.88Q236.50 154.69 237.61 155.54Q238.72 156.39 238.72 158.09Q238.72 160.97 234.40 161.89L224.46 163.46Q221.45 163.98 219.75 165.62Q218.04 167.25 218.04 169.87Z" fill="#d4c4ae"/>
</svg>