<?xml version="1.0" encoding="UTF-8"?>
<svg xmlns="http://www.w3.org/2000/svg" width="32" height="32" viewBox="0 0 32 32">
  <title>Kashmir Lab - Circle K</title>
  
  <circle cx="16.0" cy="16.0" r="15.25" fill="#ffffff" stroke="#1a1815" stroke-width="1.5"/>
  <path d="M12.95 16.89 18.94 10.86Q19.10 10.70 19.14 10.57Q19.18 10.44 19.10 10.35Q19.02 10.26 18.81 10.21L18.21 10.11Q18.05 10.08 17.99 10.02Q17.93 9.96 17.93 9.88Q17.93 9.77 18.01 9.72Q18.09 9.67 18.25 9.67H21.03Q21.20 9.67 21.28 9.72Q21.35 9.77 21.35 9.88Q21.35 9.97 21.27 10.02Q21.19 10.08 20.94 10.13Q20.79 10.16 20.66 10.20Q20.53 10.25 20.39 10.34Q20.25 10.44 20.06 10.60Q19.87 10.76 19.59 11.03L13.20 17.41ZM15.44 14.72 16.44 13.93 20.50 20.07Q20.66 20.32 20.88 20.45Q21.10 20.58 21.42 20.63Q21.73 20.69 21.82 20.75Q21.91 20.82 21.91 20.92Q21.91 21.01 21.83 21.06Q21.74 21.12 21.59 21.12H18.30Q18.13 21.12 18.06 21.06Q17.98 21.01 17.98 20.91Q17.98 20.82 18.04 20.76Q18.11 20.69 18.26 20.68L18.90 20.58Q19.09 20.54 19.11 20.42Q19.12 20.29 18.99 20.10ZM13.63 20.17Q13.63 20.33 13.73 20.44Q13.83 20.54 14.01 20.57L14.62 20.67Q14.76 20.70 14.83 20.76Q14.89 20.82 14.89 20.91Q14.89 21.01 14.82 21.06Q14.75 21.12 14.58 21.12H11.36Q11.21 21.12 11.14 21.06Q11.07 21.01 11.07 20.91Q11.07 20.73 11.33 20.67L11.95 20.57Q12.15 20.54 12.25 20.44Q12.35 20.33 12.35 20.17V10.62Q12.35 10.45 12.25 10.35Q12.15 10.25 11.95 10.22L11.33 10.12Q11.07 10.06 11.07 9.88Q11.07 9.77 11.14 9.72Q11.21 9.67 11.36 9.67H14.62Q14.78 9.67 14.85 9.72Q14.92 9.77 14.92 9.88Q14.92 10.06 14.65 10.12L14.03 10.22Q13.84 10.25 13.73 10.35Q13.63 10.45 13.63 10.62Z" fill="#1a1815"/>
</svg>