<?xml version="1.0" encoding="UTF-8"?>
<svg xmlns="http://www.w3.org/2000/svg" width="113" height="32" viewBox="0 0 113 32">
  <title>Kashmir Lab - Compact Logo</title>
  <rect width="112.8436809815951" height="32" fill="#f0ebe3"/>
  <circle cx="16.0" cy="16.0" r="15.25" fill="none" stroke="#a89070" stroke-width="1.5"/>
  <path d="M12.95 16.89 18.94 10.86Q19.10 10.70 19.14 10.57Q19.18 10.44 19.10 10.35Q19.02 10.26 18.81 10.21L18.21 10.11Q18.05 10.08 17.99 10.02Q17.93 9.96 17.93 9.88Q17.93 9.77 18.01 9.72Q18.09 9.67 18.25 9.67H21.03Q21.20 9.67 21.28 9.72Q21.35 9.77 21.35 9.88Q21.35 9.97 21.27 10.02Q21.19 10.08 20.94 10.13Q20.79 10.16 20.66 10.20Q20.53 10.25 20.39 10.34Q20.25 10.44 20.06 10.60Q19.87 10.76 19.59 11.03L13.20 17.41ZM15.44 14.72 16.44 13.93 20.50 20.07Q20.66 20.32 20.88 20.45Q21.10 20.58 21.42 20.63Q21.73 20.69 21.82 20.75Q21.91 20.82 21.91 20.92Q21.91 21.01 21.83 21.06Q21.74 21.12 21.59 21.12H18.30Q18.13 21.12 18.06 21.06Q17.98 21.01 17.98 20.91Q17.98 20.82 18.04 20.76Q18.11 20.69 18.26 20.68L18.90 20.58Q19.09 20.54 19.11 20.42Q19.12 20.29 18.99 20.10ZM13.63 20.17Q13.63 20.33 13.73 20.44Q13.83 20.54 14.01 20.57L14.62 20.67Q14.76 20.70 14.83 20.76Q14.89 20.82 14.89 20.91Q14.89 21.01 14.82 21.06Q14.75 21.12 14.58 21.12H11.36Q11.21 21.12 11.14 21.06Q11.07 21.01 11.07 20.91Q11.07 20.73 11.33 20.67L11.95 20.57Q12.15 20.54 12.25 20.44Q12.35 20.33 12.35 20.17V10.62Q12.35 10.45 12.25 10.35Q12.15 10.25 11.95 10.22L11.33 10.12Q11.07 10.06 11.07 9.88Q11.07 9.77 11.14 9.72Q11.21 9.67 11.36 9.67H14.62Q14.78 9.67 14.85 9.72Q14.92 9.77 14.92 9.88Q14.92 10.06 14.65 10.12L14.03 10.22Q13.84 10.25 13.73 10.35Q13.63 10.45 13.63 10.62Z" fill="#5c5044"/>
  <path d="M41.91 17.37 47.91 11.34Q48.06 11.18 48.10 11.05Q48.14 10.92 48.06 10.83Q47.98 10.74 47.78 10.69L47.17 10.59Q47.02 10.56 46.95 10.50Q46.89 10.44 46.89 10.36Q46.89 10.25 46.97 10.20Q47.06 10.15 47.21 10.15H49.99Q50.16 10.15 50.24 10.20Q50.31 10.25 50.31 10.36Q50.31 10.45 50.23 10.50Q50.16 10.56 49.90 10.61Q49.75 10.64 49.62 10.68Q49.49 10.73 49.35 10.82Q49.21 10.92 49.02 11.08Q48.83 11.24 48.55 11.51L42.16 17.89ZM44.41 15.20 45.40 14.41 49.46 20.55Q49.62 20.80 49.85 20.93Q50.07 21.06 50.39 21.11Q50.70 21.17 50.79 21.23Q50.88 21.30 50.88 21.40Q50.88 21.49 50.79 21.54Q50.70 21.60 50.55 21.60H47.26Q47.10 21.60 47.02 21.54Q46.94 21.49 46.94 21.39Q46.94 21.30 47.01 21.24Q47.07 21.17 47.22 21.16L47.86 21.06Q48.05 21.02 48.07 20.90Q48.09 20.77 47.96 20.58ZM42.59 20.65Q42.59 20.81 42.69 20.92Q42.79 21.02 42.97 21.05L43.58 21.15Q43.73 21.18 43.79 21.24Q43.85 21.30 43.85 21.39Q43.85 21.49 43.78 21.54Q43.71 21.60 43.55 21.60H40.32Q40.17 21.60 40.10 21.54Q40.03 21.49 40.03 21.39Q40.03 21.21 40.29 21.15L40.91 21.05Q41.11 21.02 41.21 20.92Q41.31 20.81 41.31 20.65V11.10Q41.31 10.93 41.21 10.83Q41.11 10.73 40.91 10.70L40.29 10.60Q40.03 10.54 40.03 10.36Q40.03 10.25 40.10 10.20Q40.17 10.15 40.32 10.15H43.58Q43.74 10.15 43.81 10.20Q43.88 10.25 43.88 10.36Q43.88 10.54 43.61 10.60L42.99 10.70Q42.80 10.73 42.70 10.83Q42.59 10.93 42.59 11.10Z M56.68 20.63V20.48L56.63 20.41V15.95Q56.63 15.11 56.21 14.67Q55.79 14.23 55.02 14.23Q54.25 14.23 53.89 14.54Q53.53 14.84 53.53 15.26V15.82Q53.53 16.12 53.35 16.27Q53.16 16.43 52.84 16.43Q52.56 16.43 52.40 16.26Q52.23 16.09 52.23 15.82Q52.23 15.33 52.60 14.87Q52.96 14.42 53.63 14.13Q54.30 13.84 55.24 13.84Q56.51 13.84 57.14 14.43Q57.76 15.02 57.76 15.99V20.59Q57.76 20.89 57.87 21.02Q57.98 21.14 58.16 21.14Q58.39 21.14 58.48 21.04Q58.57 20.95 58.63 20.85Q58.66 20.80 58.70 20.76Q58.74 20.72 58.80 20.72Q58.87 20.72 58.90 20.77Q58.93 20.82 58.93 20.91Q58.93 21.11 58.81 21.31Q58.68 21.50 58.44 21.64Q58.20 21.77 57.84 21.77Q57.27 21.77 56.97 21.49Q56.68 21.22 56.68 20.63ZM51.84 19.91Q51.84 18.99 52.66 18.38Q53.48 17.77 54.92 17.77Q55.51 17.77 56.01 17.89Q56.50 18.01 56.90 18.18L56.82 18.53Q56.42 18.38 56.00 18.27Q55.57 18.16 55.07 18.16Q54.12 18.16 53.59 18.59Q53.06 19.02 53.06 19.74Q53.06 20.44 53.48 20.81Q53.90 21.19 54.56 21.19Q55.20 21.19 55.81 20.90Q56.41 20.61 56.86 20.05L57.02 20.34Q56.50 21.03 55.74 21.40Q54.97 21.77 54.12 21.77Q53.12 21.77 52.48 21.28Q51.84 20.78 51.84 19.91Z M63.40 21.31Q64.06 21.31 64.46 20.96Q64.85 20.60 64.85 20.02Q64.85 19.66 64.67 19.38Q64.50 19.09 64.06 18.85Q63.62 18.61 62.84 18.40Q61.84 18.15 61.25 17.78Q60.66 17.41 60.41 16.96Q60.16 16.50 60.16 15.97Q60.16 15.02 60.84 14.43Q61.53 13.85 62.78 13.85Q63.25 13.85 63.58 13.93Q63.90 14.02 64.12 14.10Q64.34 14.19 64.50 14.19Q64.66 14.19 64.73 14.10Q64.81 14.02 64.87 13.93Q64.94 13.84 65.07 13.84Q65.14 13.84 65.20 13.89Q65.26 13.94 65.31 14.07L65.96 15.88Q66.03 16.04 66.01 16.15Q65.98 16.26 65.86 16.32Q65.75 16.36 65.66 16.31Q65.58 16.26 65.50 16.14Q65.15 15.42 64.72 15.02Q64.29 14.62 63.81 14.47Q63.33 14.31 62.82 14.31Q61.97 14.31 61.54 14.68Q61.12 15.04 61.12 15.65Q61.12 16.01 61.30 16.32Q61.48 16.62 61.94 16.88Q62.41 17.13 63.24 17.35Q64.19 17.60 64.74 17.93Q65.30 18.26 65.54 18.71Q65.78 19.15 65.78 19.74Q65.78 20.33 65.49 20.79Q65.21 21.26 64.67 21.52Q64.14 21.78 63.40 21.78Q62.93 21.78 62.64 21.67Q62.34 21.57 62.14 21.47Q61.94 21.36 61.75 21.36Q61.60 21.36 61.52 21.47Q61.44 21.57 61.38 21.67Q61.32 21.78 61.21 21.78Q61.13 21.78 61.08 21.73Q61.04 21.68 61.01 21.58L60.63 19.87Q60.58 19.62 60.59 19.51Q60.60 19.39 60.72 19.35Q60.83 19.31 60.91 19.38Q61.00 19.44 61.08 19.62Q61.52 20.51 62.12 20.91Q62.73 21.31 63.40 21.31Z M69.75 9.95V20.66Q69.75 20.85 69.84 20.95Q69.94 21.06 70.11 21.09L70.53 21.17Q70.79 21.24 70.79 21.40Q70.79 21.60 70.49 21.60H67.81Q67.67 21.60 67.60 21.55Q67.52 21.49 67.52 21.40Q67.52 21.32 67.59 21.27Q67.65 21.22 67.78 21.18L68.24 21.09Q68.41 21.05 68.51 20.95Q68.60 20.86 68.60 20.67V10.89Q68.60 10.73 68.54 10.66Q68.48 10.58 68.34 10.57L67.66 10.57Q67.53 10.56 67.48 10.51Q67.42 10.47 67.42 10.40Q67.42 10.32 67.48 10.27Q67.54 10.21 67.69 10.16L68.88 9.76Q69.08 9.69 69.22 9.66Q69.35 9.63 69.44 9.63Q69.59 9.63 69.67 9.71Q69.75 9.80 69.75 9.95ZM69.53 15.89 69.27 15.64 69.67 15.30Q70.57 14.52 71.23 14.18Q71.88 13.84 72.52 13.84Q73.49 13.84 74.01 14.47Q74.52 15.10 74.66 16.18L75.20 20.62Q75.22 20.83 75.31 20.95Q75.41 21.06 75.60 21.10L75.99 21.18Q76.12 21.22 76.19 21.27Q76.25 21.32 76.25 21.40Q76.25 21.49 76.18 21.55Q76.11 21.60 75.96 21.60H73.26Q72.96 21.60 72.96 21.40Q72.96 21.24 73.21 21.17L73.67 21.09Q73.85 21.06 73.96 20.94Q74.07 20.82 74.04 20.62L73.50 16.37Q73.39 15.47 73.02 15.01Q72.65 14.55 71.96 14.55Q71.53 14.55 71.03 14.80Q70.53 15.06 69.91 15.58Z M79.47 14.25V20.66Q79.47 20.85 79.56 20.95Q79.65 21.06 79.83 21.09L80.25 21.17Q80.50 21.24 80.50 21.40Q80.50 21.60 80.21 21.60H77.53Q77.39 21.60 77.31 21.55Q77.24 21.49 77.24 21.40Q77.24 21.32 77.31 21.27Q77.37 21.22 77.50 21.18L77.96 21.09Q78.13 21.05 78.23 20.95Q78.32 20.86 78.32 20.67V15.19Q78.32 15.02 78.26 14.95Q78.20 14.88 78.06 14.87L77.38 14.86Q77.25 14.85 77.20 14.81Q77.14 14.76 77.14 14.69Q77.14 14.61 77.20 14.56Q77.26 14.51 77.40 14.46L78.60 14.05Q78.80 13.98 78.93 13.95Q79.06 13.92 79.15 13.92Q79.31 13.92 79.39 14.00Q79.47 14.09 79.47 14.25ZM79.25 15.89 78.99 15.64 79.38 15.30Q80.31 14.49 81.00 14.16Q81.69 13.84 82.34 13.84Q83.37 13.84 83.98 14.46Q84.59 15.09 84.59 16.18V20.63Q84.59 20.83 84.70 20.95Q84.81 21.06 85.00 21.10L85.39 21.18Q85.63 21.25 85.63 21.40Q85.63 21.60 85.35 21.60H82.67Q82.37 21.60 82.37 21.40Q82.37 21.24 82.62 21.17L83.07 21.09Q83.27 21.06 83.36 20.94Q83.45 20.82 83.45 20.62V16.37Q83.45 15.46 82.99 15.00Q82.53 14.55 81.79 14.55Q81.33 14.55 80.80 14.79Q80.27 15.03 79.63 15.58ZM84.38 15.89 84.12 15.64 84.51 15.30Q85.41 14.52 86.07 14.18Q86.72 13.84 87.34 13.84Q88.32 13.84 88.84 14.47Q89.35 15.10 89.48 16.18L90.03 20.63Q90.05 20.83 90.14 20.95Q90.24 21.06 90.43 21.10L90.82 21.18Q90.95 21.22 91.01 21.27Q91.07 21.32 91.07 21.40Q91.07 21.49 91.01 21.55Q90.94 21.60 90.79 21.60H88.09Q87.79 21.60 87.79 21.40Q87.79 21.24 88.04 21.17L88.50 21.09Q88.68 21.06 88.79 20.94Q88.90 20.82 88.86 20.62L88.33 16.37Q88.22 15.47 87.85 15.01Q87.48 14.55 86.79 14.55Q86.36 14.55 85.87 14.80Q85.37 15.06 84.76 15.58Z M94.30 14.25V20.66Q94.30 20.85 94.39 20.95Q94.48 21.06 94.66 21.09L95.09 21.17Q95.22 21.21 95.29 21.26Q95.36 21.31 95.36 21.40Q95.36 21.49 95.29 21.55Q95.21 21.60 95.06 21.60H92.36Q92.22 21.60 92.15 21.55Q92.08 21.49 92.08 21.40Q92.08 21.32 92.14 21.27Q92.20 21.22 92.33 21.18L92.79 21.09Q92.96 21.05 93.06 20.95Q93.15 20.86 93.15 20.67V15.19Q93.15 15.02 93.09 14.95Q93.04 14.88 92.89 14.87L92.21 14.86Q92.08 14.85 92.03 14.81Q91.97 14.76 91.97 14.69Q91.97 14.61 92.03 14.56Q92.09 14.51 92.23 14.46L93.43 14.05Q93.64 13.98 93.77 13.95Q93.90 13.92 93.98 13.92Q94.14 13.92 94.22 14.00Q94.30 14.09 94.30 14.25ZM93.54 12.14Q93.13 12.14 92.88 11.89Q92.62 11.64 92.62 11.27Q92.62 10.90 92.88 10.66Q93.13 10.41 93.54 10.41Q93.95 10.41 94.21 10.66Q94.48 10.91 94.48 11.27Q94.48 11.64 94.21 11.89Q93.95 12.14 93.54 12.14Z M98.66 17.40Q98.66 16.27 99.02 15.47Q99.37 14.67 99.92 14.25Q100.47 13.84 101.08 13.84Q101.78 13.84 102.17 14.21Q102.56 14.58 102.56 15.20Q102.56 15.59 102.38 15.80Q102.21 16.02 101.93 16.02Q101.64 16.02 101.48 15.85Q101.31 15.69 101.31 15.38V15.13Q101.31 14.83 101.16 14.68Q101.02 14.54 100.68 14.54Q100.27 14.54 99.86 14.87Q99.46 15.20 99.20 15.84Q98.94 16.48 98.94 17.44ZM98.89 14.25 98.94 16.23V20.66Q98.94 20.84 99.04 20.95Q99.14 21.05 99.35 21.08L100.12 21.17Q100.27 21.18 100.34 21.24Q100.41 21.30 100.41 21.40Q100.41 21.49 100.34 21.55Q100.26 21.60 100.12 21.60H97.00Q96.86 21.60 96.79 21.55Q96.72 21.49 96.72 21.40Q96.72 21.32 96.78 21.27Q96.85 21.22 96.98 21.18L97.44 21.09Q97.61 21.06 97.70 20.96Q97.80 20.86 97.80 20.67V15.19Q97.80 15.03 97.74 14.96Q97.67 14.88 97.53 14.88L96.86 14.87Q96.73 14.85 96.67 14.81Q96.62 14.77 96.62 14.70Q96.62 14.62 96.68 14.57Q96.73 14.51 96.88 14.47L98.07 14.07Q98.30 13.98 98.43 13.95Q98.56 13.92 98.63 13.92Q98.76 13.92 98.82 14.00Q98.88 14.07 98.89 14.25Z" fill="#1a1815"/>
</svg>