<?xml version="1.0" encoding="UTF-8"?>
<svg xmlns="http://www.w3.org/2000/svg" width="283" height="64" viewBox="0 0 283 64">
  <title>Kashmir Lab - Full Logo</title>
  <rect width="282.68573594693004" height="64" fill="#1a1815"/>
  <circle cx="32.0" cy="32.0" r="31.2" fill="none" stroke="#d4c4ae" stroke-width="1.6"/>
  <path d="M25.90 33.78 37.89 21.72Q38.20 21.40 38.28 21.14Q38.36 20.87 38.20 20.69Q38.04 20.51 37.63 20.42L36.42 20.22Q36.11 20.15 35.98 20.04Q35.86 19.93 35.86 19.76Q35.86 19.55 36.02 19.44Q36.19 19.34 36.50 19.34H42.06Q42.40 19.34 42.55 19.44Q42.70 19.55 42.70 19.76Q42.70 19.94 42.54 20.05Q42.39 20.15 41.88 20.25Q41.57 20.32 41.32 20.41Q41.06 20.50 40.78 20.69Q40.49 20.87 40.11 21.20Q39.74 21.53 39.18 22.07L26.40 34.81ZM30.89 29.45 32.88 27.86 41.00 40.15Q41.33 40.64 41.77 40.90Q42.21 41.16 42.85 41.26Q43.47 41.37 43.65 41.50Q43.83 41.63 43.83 41.83Q43.83 42.01 43.66 42.13Q43.48 42.24 43.17 42.24H36.60Q36.27 42.24 36.11 42.13Q35.96 42.01 35.96 41.81Q35.96 41.63 36.09 41.51Q36.22 41.39 36.52 41.36L37.79 41.16Q38.18 41.08 38.22 40.83Q38.25 40.59 37.99 40.20ZM27.26 40.34Q27.26 40.67 27.46 40.87Q27.66 41.08 28.02 41.14L29.24 41.34Q29.53 41.41 29.65 41.52Q29.78 41.63 29.78 41.81Q29.78 42.01 29.64 42.13Q29.50 42.24 29.17 42.24H22.72Q22.41 42.24 22.27 42.13Q22.13 42.01 22.13 41.81Q22.13 41.45 22.66 41.34L23.90 41.14Q24.29 41.08 24.50 40.87Q24.70 40.67 24.70 40.34V21.23Q24.70 20.91 24.50 20.70Q24.29 20.50 23.90 20.43L22.66 20.24Q22.13 20.12 22.13 19.76Q22.13 19.55 22.27 19.44Q22.41 19.34 22.72 19.34H29.24Q29.56 19.34 29.70 19.44Q29.84 19.55 29.84 19.76Q29.84 20.12 29.30 20.24L28.06 20.43Q27.68 20.50 27.47 20.70Q27.26 20.91 27.26 21.23Z" fill="#d4c4ae"/>
  <path d="M83.82 34.74 95.81 22.68Q96.12 22.36 96.21 22.10Q96.29 21.83 96.12 21.65Q95.96 21.47 95.55 21.38L94.34 21.18Q94.03 21.11 93.91 21.00Q93.79 20.89 93.79 20.72Q93.79 20.51 93.95 20.40Q94.11 20.30 94.42 20.30H99.99Q100.33 20.30 100.48 20.40Q100.62 20.51 100.62 20.72Q100.62 20.90 100.47 21.01Q100.31 21.11 99.81 21.21Q99.50 21.28 99.24 21.37Q98.99 21.46 98.70 21.65Q98.42 21.83 98.04 22.16Q97.66 22.49 97.11 23.03L84.33 35.77ZM88.81 30.41 90.81 28.82 98.92 41.11Q99.25 41.60 99.69 41.86Q100.13 42.12 100.77 42.22Q101.39 42.33 101.57 42.46Q101.75 42.59 101.75 42.79Q101.75 42.97 101.58 43.09Q101.41 43.20 101.10 43.20H94.52Q94.19 43.20 94.04 43.09Q93.88 42.97 93.88 42.77Q93.88 42.59 94.01 42.47Q94.15 42.35 94.44 42.32L95.72 42.12Q96.11 42.04 96.14 41.79Q96.17 41.55 95.91 41.16ZM85.18 41.30Q85.18 41.63 85.38 41.83Q85.59 42.04 85.95 42.10L87.16 42.30Q87.45 42.37 87.58 42.48Q87.70 42.59 87.70 42.77Q87.70 42.97 87.56 43.09Q87.42 43.20 87.09 43.20H80.65Q80.34 43.20 80.20 43.09Q80.06 42.97 80.06 42.77Q80.06 42.41 80.58 42.30L81.83 42.10Q82.22 42.04 82.42 41.83Q82.63 41.63 82.63 41.30V22.19Q82.63 21.87 82.42 21.66Q82.22 21.46 81.83 21.39L80.58 21.20Q80.06 21.08 80.06 20.72Q80.06 20.51 80.20 20.40Q80.34 20.30 80.65 20.30H87.16Q87.49 20.30 87.63 20.40Q87.77 20.51 87.77 20.72Q87.77 21.08 87.23 21.20L85.98 21.39Q85.61 21.46 85.39 21.66Q85.18 21.87 85.18 22.19Z M113.35 41.25V40.96L113.25 40.83V31.90Q113.25 30.21 112.42 29.33Q111.59 28.46 110.03 28.46Q108.51 28.46 107.79 29.07Q107.07 29.69 107.07 30.52V31.63Q107.07 32.24 106.69 32.55Q106.32 32.86 105.68 32.86Q105.12 32.86 104.80 32.53Q104.47 32.19 104.47 31.63Q104.47 30.65 105.20 29.74Q105.92 28.84 107.27 28.26Q108.61 27.67 110.47 27.67Q113.02 27.67 114.28 28.85Q115.53 30.03 115.53 31.98V41.17Q115.53 41.78 115.75 42.03Q115.97 42.28 116.33 42.28Q116.77 42.28 116.95 42.09Q117.13 41.89 117.26 41.69Q117.33 41.60 117.40 41.52Q117.47 41.45 117.61 41.45Q117.74 41.45 117.80 41.55Q117.87 41.65 117.87 41.83Q117.87 42.22 117.61 42.61Q117.36 43.00 116.88 43.27Q116.39 43.54 115.68 43.54Q114.55 43.54 113.95 42.99Q113.35 42.43 113.35 41.25ZM103.68 39.83Q103.68 37.98 105.32 36.76Q106.96 35.54 109.83 35.54Q111.01 35.54 112.01 35.78Q113.01 36.02 113.79 36.36L113.63 37.07Q112.84 36.75 111.99 36.53Q111.14 36.31 110.15 36.31Q108.25 36.31 107.18 37.17Q106.12 38.03 106.12 39.49Q106.12 40.88 106.96 41.63Q107.81 42.38 109.11 42.38Q110.41 42.38 111.62 41.80Q112.83 41.22 113.73 40.09L114.04 40.68Q113.01 42.05 111.48 42.80Q109.95 43.54 108.25 43.54Q106.24 43.54 104.96 42.55Q103.68 41.56 103.68 39.83Z M126.80 42.63Q128.12 42.63 128.91 41.92Q129.70 41.20 129.70 40.04Q129.70 39.32 129.34 38.75Q128.99 38.18 128.12 37.70Q127.24 37.23 125.69 36.80Q123.68 36.30 122.50 35.56Q121.32 34.82 120.82 33.92Q120.32 33.01 120.32 31.94Q120.32 30.05 121.69 28.87Q123.05 27.69 125.56 27.69Q126.51 27.69 127.15 27.86Q127.80 28.03 128.24 28.21Q128.68 28.38 129.01 28.38Q129.32 28.38 129.47 28.21Q129.61 28.03 129.74 27.85Q129.88 27.67 130.14 27.67Q130.28 27.67 130.41 27.77Q130.53 27.87 130.61 28.15L131.92 31.76Q132.05 32.08 132.01 32.30Q131.97 32.52 131.72 32.63Q131.50 32.71 131.32 32.62Q131.15 32.52 131.00 32.29Q130.30 30.85 129.44 30.05Q128.58 29.24 127.62 28.93Q126.65 28.62 125.64 28.62Q123.94 28.62 123.09 29.35Q122.24 30.08 122.24 31.31Q122.24 32.03 122.60 32.63Q122.96 33.24 123.89 33.75Q124.82 34.27 126.49 34.71Q128.37 35.20 129.48 35.86Q130.60 36.53 131.08 37.42Q131.56 38.31 131.56 39.49Q131.56 40.66 130.99 41.59Q130.42 42.51 129.34 43.04Q128.27 43.56 126.80 43.56Q125.87 43.56 125.27 43.35Q124.67 43.13 124.27 42.93Q123.87 42.73 123.50 42.73Q123.20 42.73 123.05 42.93Q122.89 43.13 122.77 43.35Q122.64 43.56 122.42 43.56Q122.27 43.56 122.17 43.46Q122.07 43.36 122.02 43.15L121.25 39.73Q121.16 39.24 121.18 39.01Q121.20 38.78 121.43 38.70Q121.66 38.62 121.83 38.75Q121.99 38.88 122.17 39.24Q123.04 41.02 124.25 41.83Q125.46 42.63 126.80 42.63Z M139.50 19.90V41.32Q139.50 41.69 139.68 41.91Q139.87 42.12 140.21 42.19L141.07 42.35Q141.57 42.48 141.57 42.79Q141.57 43.20 140.98 43.20H135.62Q135.34 43.20 135.19 43.09Q135.05 42.99 135.05 42.81Q135.05 42.64 135.18 42.54Q135.31 42.43 135.57 42.37L136.48 42.19Q136.83 42.10 137.02 41.91Q137.20 41.71 137.20 41.33V21.78Q137.20 21.46 137.08 21.31Q136.96 21.16 136.68 21.15L135.32 21.13Q135.06 21.11 134.96 21.02Q134.85 20.93 134.85 20.80Q134.85 20.64 134.96 20.53Q135.08 20.43 135.37 20.33L137.76 19.53Q138.17 19.38 138.43 19.32Q138.69 19.27 138.87 19.27Q139.18 19.27 139.34 19.43Q139.50 19.59 139.50 19.90ZM139.07 31.78 138.55 31.27 139.33 30.60Q141.15 29.03 142.46 28.35Q143.77 27.67 145.04 27.67Q146.97 27.67 148.01 28.93Q149.05 30.19 149.31 32.37L150.39 41.24Q150.44 41.66 150.63 41.89Q150.82 42.12 151.19 42.20L151.98 42.37Q152.24 42.43 152.37 42.54Q152.50 42.64 152.50 42.81Q152.50 42.99 152.36 43.09Q152.22 43.20 151.93 43.20H146.51Q145.92 43.20 145.92 42.79Q145.92 42.48 146.42 42.35L147.33 42.19Q147.71 42.12 147.92 41.88Q148.13 41.65 148.08 41.24L147.00 32.75Q146.78 30.93 146.04 30.01Q145.30 29.10 143.93 29.10Q143.06 29.10 142.06 29.60Q141.07 30.11 139.82 31.16Z M158.93 28.49V41.32Q158.93 41.69 159.12 41.91Q159.31 42.12 159.65 42.19L160.50 42.35Q161.01 42.48 161.01 42.79Q161.01 43.20 160.42 43.20H155.05Q154.78 43.20 154.63 43.09Q154.48 42.99 154.48 42.81Q154.48 42.64 154.61 42.54Q154.74 42.43 155.00 42.37L155.92 42.19Q156.26 42.10 156.45 41.91Q156.64 41.71 156.64 41.33V30.37Q156.64 30.05 156.52 29.90Q156.39 29.75 156.12 29.74L154.76 29.72Q154.50 29.70 154.39 29.61Q154.28 29.52 154.28 29.38Q154.28 29.23 154.40 29.12Q154.51 29.02 154.81 28.92L157.20 28.10Q157.61 27.97 157.87 27.90Q158.13 27.84 158.31 27.84Q158.62 27.84 158.78 28.01Q158.93 28.18 158.93 28.49ZM158.51 31.78 157.98 31.27 158.77 30.60Q160.62 28.98 162.00 28.33Q163.38 27.67 164.69 27.67Q166.73 27.67 167.96 28.93Q169.19 30.18 169.19 32.37V41.25Q169.19 41.66 169.40 41.89Q169.61 42.12 169.99 42.20L170.78 42.37Q171.27 42.50 171.27 42.79Q171.27 43.20 170.69 43.20H165.34Q164.74 43.20 164.74 42.79Q164.74 42.48 165.25 42.35L166.15 42.19Q166.54 42.12 166.72 41.88Q166.90 41.65 166.90 41.24V32.75Q166.90 30.91 165.98 30.01Q165.07 29.10 163.58 29.10Q162.66 29.10 161.60 29.58Q160.53 30.06 159.26 31.16ZM168.76 31.78 168.24 31.27 169.02 30.60Q170.82 29.03 172.13 28.35Q173.44 27.67 174.69 27.67Q176.63 27.67 177.67 28.93Q178.71 30.19 178.96 32.37L180.05 41.25Q180.10 41.66 180.29 41.89Q180.48 42.12 180.85 42.20L181.64 42.37Q181.90 42.43 182.02 42.54Q182.15 42.64 182.15 42.81Q182.15 42.99 182.01 43.09Q181.88 43.20 181.59 43.20H176.17Q175.59 43.20 175.59 42.79Q175.59 42.48 176.08 42.35L176.99 42.19Q177.37 42.12 177.58 41.88Q177.79 41.65 177.73 41.24L176.66 32.75Q176.44 30.93 175.70 30.01Q174.96 29.10 173.59 29.10Q172.72 29.10 171.73 29.60Q170.74 30.11 169.52 31.16Z M188.59 28.49V41.32Q188.59 41.69 188.78 41.91Q188.97 42.12 189.31 42.19L190.18 42.35Q190.44 42.41 190.58 42.52Q190.72 42.63 190.72 42.81Q190.72 42.99 190.57 43.09Q190.42 43.20 190.13 43.20H184.71Q184.44 43.20 184.30 43.09Q184.16 42.99 184.16 42.81Q184.16 42.64 184.28 42.54Q184.40 42.43 184.66 42.37L185.58 42.19Q185.92 42.10 186.11 41.91Q186.30 41.71 186.30 41.33V30.37Q186.30 30.05 186.19 29.90Q186.07 29.75 185.78 29.74L184.42 29.72Q184.16 29.70 184.05 29.61Q183.95 29.52 183.95 29.38Q183.95 29.23 184.06 29.12Q184.17 29.02 184.47 28.92L186.86 28.10Q187.28 27.97 187.54 27.90Q187.81 27.84 187.97 27.84Q188.28 27.84 188.44 28.01Q188.59 28.18 188.59 28.49ZM187.09 24.27Q186.27 24.27 185.75 23.77Q185.24 23.27 185.24 22.54Q185.24 21.80 185.75 21.31Q186.27 20.82 187.09 20.82Q187.90 20.82 188.43 21.32Q188.95 21.82 188.95 22.54Q188.95 23.27 188.43 23.77Q187.90 24.27 187.09 24.27Z M197.33 34.81Q197.33 32.53 198.03 30.94Q198.73 29.34 199.84 28.51Q200.94 27.67 202.15 27.67Q203.56 27.67 204.34 28.42Q205.11 29.16 205.11 30.39Q205.11 31.18 204.76 31.61Q204.41 32.04 203.86 32.04Q203.28 32.04 202.96 31.71Q202.63 31.37 202.63 30.77V30.26Q202.61 29.65 202.33 29.37Q202.04 29.08 201.37 29.08Q200.53 29.08 199.72 29.74Q198.91 30.39 198.40 31.67Q197.88 32.96 197.88 34.87ZM197.79 28.49 197.88 32.47V41.32Q197.88 41.68 198.08 41.89Q198.28 42.10 198.70 42.15L200.24 42.35Q200.53 42.37 200.68 42.48Q200.83 42.59 200.83 42.81Q200.83 42.99 200.67 43.09Q200.52 43.20 200.24 43.20H194.01Q193.73 43.20 193.58 43.09Q193.43 42.99 193.43 42.81Q193.43 42.64 193.56 42.54Q193.70 42.43 193.96 42.37L194.87 42.19Q195.22 42.12 195.41 41.92Q195.59 41.71 195.59 41.33V30.37Q195.59 30.06 195.47 29.92Q195.35 29.77 195.07 29.75L193.71 29.74Q193.45 29.70 193.34 29.62Q193.24 29.54 193.24 29.39Q193.24 29.24 193.35 29.13Q193.47 29.02 193.76 28.93L196.13 28.13Q196.61 27.95 196.86 27.90Q197.11 27.84 197.26 27.84Q197.52 27.84 197.65 27.99Q197.77 28.15 197.79 28.49Z" fill="#d4c4ae"/>
  <path d="M217.89 43.20V20.44H220.62V40.73H232.13V43.20Z M240.62 43.66Q238.96 43.66 237.60 43.07Q236.23 42.48 235.45 41.38Q234.67 40.27 234.67 38.68Q234.67 37.05 235.45 36.00Q236.23 34.94 237.60 34.40Q238.96 33.87 240.65 33.87H246.02V32.70Q246.02 31.00 245.03 30.03Q244.04 29.05 242.08 29.05Q240.17 29.05 239.09 29.98Q238.02 30.91 237.63 32.47L235.22 31.69Q235.61 30.35 236.46 29.27Q237.30 28.18 238.72 27.51Q240.13 26.84 242.12 26.84Q245.17 26.84 246.86 28.42Q248.56 30.00 248.56 32.86V40.05Q248.56 41.02 249.47 41.02H250.93V43.20H248.69Q247.61 43.20 246.96 42.60Q246.31 42.00 246.31 40.99V40.83H245.92Q245.56 41.44 244.96 42.11Q244.36 42.78 243.32 43.22Q242.28 43.66 240.62 43.66ZM240.91 41.44Q243.19 41.44 244.60 40.09Q246.02 38.74 246.02 36.31V35.95H240.75Q239.22 35.95 238.23 36.61Q237.24 37.28 237.24 38.61Q237.24 39.95 238.26 40.70Q239.29 41.44 240.91 41.44Z M263.25 43.66Q260.78 43.66 259.40 42.71Q258.02 41.77 257.40 40.57H256.95V43.20H254.44V20.44H257.01V29.80H257.47Q257.86 29.05 258.57 28.39Q259.29 27.72 260.44 27.28Q261.60 26.84 263.25 26.84Q265.34 26.84 267.04 27.83Q268.75 28.83 269.76 30.66Q270.77 32.50 270.77 35.04V35.46Q270.77 38.00 269.74 39.85Q268.72 41.70 267.01 42.68Q265.30 43.66 263.25 43.66ZM262.57 41.38Q265.04 41.38 266.59 39.80Q268.13 38.22 268.13 35.40V35.10Q268.13 32.27 266.59 30.70Q265.04 29.12 262.57 29.12Q260.13 29.12 258.56 30.70Q256.98 32.27 256.98 35.10V35.40Q256.98 38.22 258.56 39.80Q260.13 41.38 262.57 41.38Z" fill="#d4c4ae"/>
</svg>