<?xml version="1.0" encoding="UTF-8"?>
<svg xmlns="http://www.w3.org/2000/svg" width="1101" height="256" viewBox="0 0 1101 256">
  <title>Kashmir Lab - Full Logo</title>
  <rect width="1101.0031063893462" height="256" fill="#1a1815"/>
  <circle cx="128.0" cy="128.0" r="124.8" fill="none" stroke="#ffffff" stroke-width="6.4"/>
  <path d="M103.59 135.13 151.56 86.90Q152.80 85.59 153.13 84.54Q153.46 83.50 152.80 82.78Q152.15 82.06 150.51 81.66L145.67 80.88Q144.43 80.62 143.93 80.16Q143.44 79.70 143.44 79.05Q143.44 78.20 144.10 77.77Q144.75 77.34 146.00 77.34H168.25Q169.62 77.34 170.21 77.77Q170.80 78.20 170.80 79.05Q170.80 79.77 170.18 80.19Q169.55 80.62 167.53 81.01Q166.28 81.27 165.27 81.63Q164.25 81.99 163.11 82.74Q161.96 83.50 160.46 84.80Q158.95 86.11 156.73 88.27L105.62 139.25ZM123.55 117.79 131.53 111.44 163.99 160.58Q165.30 162.55 167.07 163.59Q168.83 164.64 171.39 165.03Q173.87 165.49 174.59 166.02Q175.31 166.54 175.31 167.32Q175.31 168.04 174.63 168.50Q173.94 168.96 172.70 168.96H146.39Q145.08 168.96 144.46 168.50Q143.84 168.04 143.84 167.26Q143.84 166.54 144.36 166.05Q144.88 165.56 146.06 165.43L151.17 164.64Q152.74 164.31 152.87 163.33Q153.00 162.35 151.95 160.78ZM109.02 161.37Q109.02 162.68 109.84 163.50Q110.66 164.31 112.10 164.58L116.94 165.36Q118.12 165.62 118.61 166.08Q119.10 166.54 119.10 167.26Q119.10 168.04 118.54 168.50Q117.99 168.96 116.68 168.96H90.90Q89.65 168.96 89.10 168.50Q88.54 168.04 88.54 167.26Q88.54 165.82 90.63 165.36L95.61 164.58Q97.18 164.31 98.00 163.50Q98.81 162.68 98.81 161.37V84.94Q98.81 83.63 98.00 82.81Q97.18 81.99 95.61 81.73L90.63 80.94Q88.54 80.49 88.54 79.05Q88.54 78.20 89.10 77.77Q89.65 77.34 90.90 77.34H116.94Q118.25 77.34 118.81 77.77Q119.36 78.20 119.36 79.05Q119.36 80.49 117.20 80.94L112.23 81.73Q110.72 81.99 109.87 82.81Q109.02 83.63 109.02 84.94Z" fill="#ffffff"/>
  <path d="M335.29 138.97 383.26 90.74Q384.50 89.43 384.83 88.38Q385.15 87.34 384.50 86.62Q383.85 85.90 382.21 85.50L377.37 84.72Q376.12 84.46 375.63 84.00Q375.14 83.54 375.14 82.89Q375.14 82.04 375.80 81.61Q376.45 81.18 377.69 81.18H399.94Q401.32 81.18 401.91 81.61Q402.50 82.04 402.50 82.89Q402.50 83.61 401.87 84.03Q401.25 84.46 399.22 84.85Q397.98 85.11 396.97 85.47Q395.95 85.83 394.81 86.58Q393.66 87.34 392.16 88.64Q390.65 89.95 388.43 92.11L337.32 143.09ZM355.25 121.63 363.23 115.28 395.69 164.42Q397.00 166.39 398.77 167.43Q400.53 168.48 403.08 168.87Q405.57 169.33 406.29 169.86Q407.01 170.38 407.01 171.16Q407.01 171.88 406.32 172.34Q405.64 172.80 404.39 172.80H378.09Q376.78 172.80 376.16 172.34Q375.53 171.88 375.53 171.10Q375.53 170.38 376.06 169.89Q376.58 169.40 377.76 169.27L382.86 168.48Q384.43 168.15 384.57 167.17Q384.70 166.19 383.65 164.62ZM340.72 165.21Q340.72 166.52 341.54 167.34Q342.36 168.15 343.80 168.42L348.64 169.20Q349.82 169.46 350.31 169.92Q350.80 170.38 350.80 171.10Q350.80 171.88 350.24 172.34Q349.69 172.80 348.38 172.80H322.59Q321.35 172.80 320.79 172.34Q320.24 171.88 320.24 171.10Q320.24 169.66 322.33 169.20L327.31 168.42Q328.88 168.15 329.69 167.34Q330.51 166.52 330.51 165.21V88.78Q330.51 87.47 329.69 86.65Q328.88 85.83 327.31 85.57L322.33 84.78Q320.24 84.33 320.24 82.89Q320.24 82.04 320.79 81.61Q321.35 81.18 322.59 81.18H348.64Q349.95 81.18 350.50 81.61Q351.06 82.04 351.06 82.89Q351.06 84.33 348.90 84.78L343.93 85.57Q342.42 85.83 341.57 86.65Q340.72 87.47 340.72 88.78Z M453.41 165.01V163.83L453.02 163.31V127.58Q453.02 120.84 449.68 117.34Q446.34 113.84 440.12 113.84Q434.04 113.84 431.16 116.29Q428.28 118.75 428.28 122.08V126.53Q428.28 128.96 426.77 130.20Q425.27 131.44 422.72 131.44Q420.49 131.44 419.18 130.10Q417.87 128.76 417.87 126.53Q417.87 122.61 420.79 118.98Q423.70 115.34 429.06 113.02Q434.43 110.70 441.89 110.70Q452.10 110.70 457.11 115.41Q462.11 120.12 462.11 127.91V164.69Q462.11 167.11 462.99 168.12Q463.88 169.14 465.32 169.14Q467.08 169.14 467.80 168.35Q468.52 167.56 469.05 166.78Q469.31 166.39 469.60 166.09Q469.90 165.80 470.42 165.80Q470.95 165.80 471.21 166.19Q471.47 166.58 471.47 167.30Q471.47 168.87 470.45 170.44Q469.44 172.01 467.51 173.09Q465.58 174.17 462.70 174.17Q458.19 174.17 455.80 171.95Q453.41 169.72 453.41 165.01ZM414.73 159.32Q414.73 151.92 421.28 147.05Q427.82 142.17 439.34 142.17Q444.05 142.17 448.04 143.12Q452.03 144.07 455.17 145.45L454.52 148.26Q451.38 147.02 447.98 146.13Q444.57 145.25 440.58 145.25Q432.99 145.25 428.74 148.69Q424.48 152.12 424.48 157.95Q424.48 163.51 427.85 166.52Q431.22 169.53 436.46 169.53Q441.63 169.53 446.47 167.20Q451.31 164.88 454.91 160.37L456.16 162.72Q452.03 168.22 445.92 171.20Q439.80 174.17 432.99 174.17Q424.94 174.17 419.84 170.22Q414.73 166.26 414.73 159.32Z M507.20 170.51Q512.50 170.51 515.64 167.66Q518.78 164.82 518.78 160.17Q518.78 157.29 517.38 155.00Q515.97 152.71 512.47 150.81Q508.97 148.91 502.75 147.21Q494.70 145.18 489.99 142.24Q485.28 139.29 483.28 135.66Q481.29 132.03 481.29 127.78Q481.29 120.19 486.75 115.47Q492.21 110.76 502.23 110.76Q506.02 110.76 508.61 111.45Q511.19 112.14 512.96 112.82Q514.72 113.51 516.03 113.51Q517.28 113.51 517.87 112.82Q518.45 112.14 518.98 111.42Q519.50 110.70 520.55 110.70Q521.14 110.70 521.63 111.09Q522.12 111.48 522.45 112.60L527.68 127.06Q528.21 128.30 528.04 129.18Q527.88 130.07 526.90 130.53Q525.98 130.85 525.29 130.46Q524.61 130.07 524.02 129.15Q521.20 123.39 517.77 120.19Q514.33 116.98 510.47 115.74Q506.61 114.49 502.55 114.49Q495.75 114.49 492.34 117.41Q488.94 120.32 488.94 125.23Q488.94 128.10 490.38 130.53Q491.82 132.95 495.55 135.01Q499.28 137.07 505.96 138.84Q513.48 140.80 517.93 143.45Q522.38 146.10 524.31 149.67Q526.24 153.23 526.24 157.95Q526.24 162.66 523.95 166.35Q521.66 170.05 517.38 172.15Q513.09 174.24 507.20 174.24Q503.47 174.24 501.08 173.39Q498.69 172.54 497.09 171.72Q495.49 170.90 493.98 170.90Q492.80 170.90 492.18 171.72Q491.56 172.54 491.07 173.39Q490.58 174.24 489.66 174.24Q489.07 174.24 488.68 173.85Q488.29 173.45 488.09 172.60L485.02 158.93Q484.62 156.96 484.72 156.05Q484.82 155.13 485.74 154.80Q486.65 154.48 487.31 155.00Q487.96 155.52 488.68 156.96Q492.15 164.10 496.99 167.30Q501.83 170.51 507.20 170.51Z M557.98 79.61V165.27Q557.98 166.78 558.73 167.63Q559.49 168.48 560.86 168.74L564.26 169.40Q566.29 169.92 566.29 171.16Q566.29 172.80 563.94 172.80H542.47Q541.36 172.80 540.77 172.37Q540.18 171.95 540.18 171.23Q540.18 170.58 540.70 170.15Q541.23 169.72 542.28 169.46L545.94 168.74Q547.31 168.42 548.07 167.63Q548.82 166.84 548.82 165.34V87.14Q548.82 85.83 548.33 85.24Q547.84 84.65 546.72 84.59L541.29 84.52Q540.25 84.46 539.82 84.10Q539.40 83.74 539.40 83.21Q539.40 82.56 539.85 82.13Q540.31 81.71 541.49 81.32L551.04 78.11Q552.68 77.52 553.73 77.29Q554.77 77.06 555.49 77.06Q556.74 77.06 557.36 77.72Q557.98 78.37 557.98 79.61ZM556.28 127.12 554.19 125.09 557.33 122.41Q564.59 116.13 569.83 113.41Q575.06 110.70 580.16 110.70Q587.89 110.70 592.04 115.74Q596.20 120.78 597.24 129.48L601.56 164.95Q601.76 166.65 602.51 167.56Q603.26 168.48 604.77 168.81L607.91 169.46Q608.96 169.72 609.48 170.15Q610.01 170.58 610.01 171.23Q610.01 171.95 609.45 172.37Q608.89 172.80 607.71 172.80H586.05Q583.70 172.80 583.70 171.16Q583.70 169.92 585.66 169.40L589.33 168.74Q590.83 168.48 591.68 167.53Q592.53 166.58 592.34 164.95L588.02 130.98Q587.10 123.72 584.16 120.06Q581.21 116.39 575.71 116.39Q572.25 116.39 568.25 118.42Q564.26 120.45 559.29 124.64Z M635.72 113.97V165.27Q635.72 166.78 636.48 167.63Q637.23 168.48 638.60 168.74L642.01 169.40Q644.03 169.92 644.03 171.16Q644.03 172.80 641.68 172.80H620.21Q619.10 172.80 618.51 172.37Q617.92 171.95 617.92 171.23Q617.92 170.58 618.45 170.15Q618.97 169.72 620.02 169.46L623.68 168.74Q625.06 168.42 625.81 167.63Q626.56 166.84 626.56 165.34V121.50Q626.56 120.19 626.07 119.60Q625.58 119.01 624.47 118.94L619.04 118.88Q617.99 118.81 617.56 118.45Q617.14 118.09 617.14 117.50Q617.14 116.91 617.60 116.49Q618.05 116.06 619.23 115.67L628.79 112.40Q630.42 111.88 631.47 111.61Q632.52 111.35 633.24 111.35Q634.48 111.35 635.10 112.04Q635.72 112.73 635.72 113.97ZM634.02 127.12 631.93 125.09 635.07 122.41Q642.46 115.93 647.99 113.32Q653.52 110.70 658.76 110.70Q666.94 110.70 671.85 115.70Q676.75 120.71 676.75 129.48V165.01Q676.75 166.65 677.60 167.56Q678.45 168.48 679.96 168.81L683.10 169.46Q685.06 169.99 685.06 171.16Q685.06 172.80 682.77 172.80H661.38Q658.95 172.80 658.95 171.16Q658.95 169.92 660.98 169.40L664.58 168.74Q666.15 168.48 666.87 167.53Q667.59 166.58 667.59 164.95V130.98Q667.59 123.65 663.93 120.02Q660.26 116.39 654.31 116.39Q650.64 116.39 646.39 118.32Q642.14 120.25 637.03 124.64ZM675.05 127.12 672.96 125.09 676.10 122.41Q683.30 116.13 688.53 113.41Q693.77 110.70 698.74 110.70Q706.53 110.70 710.68 115.74Q714.84 120.78 715.82 129.48L720.21 165.01Q720.40 166.65 721.15 167.56Q721.91 168.48 723.41 168.81L726.55 169.46Q727.60 169.72 728.09 170.15Q728.58 170.58 728.58 171.23Q728.58 171.95 728.06 172.37Q727.53 172.80 726.36 172.80H704.70Q702.34 172.80 702.34 171.16Q702.34 169.92 704.30 169.40L707.97 168.74Q709.47 168.48 710.32 167.53Q711.17 166.58 710.91 164.95L706.66 130.98Q705.74 123.72 702.80 120.06Q699.85 116.39 694.36 116.39Q690.89 116.39 686.93 118.42Q682.97 120.45 678.06 124.64Z M754.36 113.97V165.27Q754.36 166.78 755.12 167.63Q755.87 168.48 757.24 168.74L760.71 169.40Q761.76 169.66 762.32 170.08Q762.87 170.51 762.87 171.23Q762.87 171.95 762.28 172.37Q761.69 172.80 760.52 172.80H738.86Q737.74 172.80 737.19 172.37Q736.63 171.95 736.63 171.23Q736.63 170.58 737.12 170.15Q737.61 169.72 738.66 169.46L742.32 168.74Q743.70 168.42 744.45 167.63Q745.20 166.84 745.20 165.34V121.50Q745.20 120.19 744.75 119.60Q744.29 119.01 743.11 118.94L737.68 118.88Q736.63 118.81 736.21 118.45Q735.78 118.09 735.78 117.50Q735.78 116.91 736.24 116.49Q736.70 116.06 737.87 115.67L747.43 112.40Q749.13 111.88 750.18 111.61Q751.22 111.35 751.88 111.35Q753.12 111.35 753.74 112.04Q754.36 112.73 754.36 113.97ZM748.34 97.09Q745.07 97.09 743.01 95.09Q740.95 93.09 740.95 90.15Q740.95 87.20 743.01 85.24Q745.07 83.28 748.34 83.28Q751.62 83.28 753.71 85.27Q755.80 87.27 755.80 90.15Q755.80 93.09 753.71 95.09Q751.62 97.09 748.34 97.09Z M789.31 139.23Q789.31 130.13 792.12 123.75Q794.94 117.37 799.35 114.04Q803.77 110.70 808.61 110.70Q814.24 110.70 817.35 113.68Q820.46 116.65 820.46 121.56Q820.46 124.70 819.05 126.44Q817.65 128.17 815.42 128.17Q813.13 128.17 811.82 126.83Q810.51 125.49 810.51 123.07V121.04Q810.45 118.62 809.30 117.47Q808.16 116.33 805.47 116.33Q802.14 116.33 798.90 118.94Q795.66 121.56 793.60 126.70Q791.53 131.83 791.53 139.49ZM791.14 113.97 791.53 129.87V165.27Q791.53 166.71 792.32 167.56Q793.11 168.42 794.81 168.61L800.96 169.40Q802.14 169.46 802.72 169.92Q803.31 170.38 803.31 171.23Q803.31 171.95 802.69 172.37Q802.07 172.80 800.96 172.80H776.03Q774.91 172.80 774.32 172.37Q773.74 171.95 773.74 171.23Q773.74 170.58 774.26 170.15Q774.78 169.72 775.83 169.46L779.49 168.74Q780.87 168.48 781.62 167.66Q782.37 166.84 782.37 165.34V121.50Q782.37 120.25 781.88 119.66Q781.39 119.07 780.28 119.01L774.85 118.94Q773.80 118.81 773.38 118.49Q772.95 118.16 772.95 117.57Q772.95 116.98 773.41 116.52Q773.87 116.06 775.04 115.74L784.53 112.53Q786.43 111.81 787.44 111.58Q788.46 111.35 789.05 111.35Q790.10 111.35 790.59 111.97Q791.08 112.60 791.14 113.97Z" fill="#ffffff"/>
  <path d="M872.34 172.80V81.74H880.66V165.26H928.53V172.80Z M963.13 174.62Q956.50 174.62 951.10 172.34Q945.70 170.07 942.58 165.65Q939.46 161.22 939.46 154.98Q939.46 148.60 942.58 144.44Q945.70 140.28 951.04 138.20Q956.37 136.12 962.87 136.12H986.03V131.04Q986.03 123.37 981.60 119.08Q977.18 114.78 968.73 114.78Q960.40 114.78 955.52 118.88Q950.65 122.98 948.95 129.87L941.41 127.66Q942.97 122.07 946.35 117.58Q949.73 113.09 955.33 110.43Q960.92 107.76 968.73 107.76Q980.69 107.76 987.26 114.00Q993.83 120.25 993.83 131.43V162.13Q993.83 166.04 997.47 166.04H1003.59V172.80H995.26Q991.23 172.80 988.89 170.39Q986.55 167.99 986.55 163.82V162.91H985.25Q983.56 165.78 980.89 168.51Q978.22 171.24 973.93 172.93Q969.64 174.62 963.13 174.62ZM963.65 167.60Q973.67 167.60 979.85 161.55Q986.03 155.50 986.03 144.44V142.88H963.00Q956.24 142.88 951.75 145.81Q947.26 148.73 947.26 154.85Q947.26 160.96 951.88 164.28Q956.50 167.60 963.65 167.60Z M1052.24 174.62Q1041.83 174.62 1036.04 170.52Q1030.26 166.43 1027.52 161.22H1025.96V172.80H1018.42V81.74H1026.22V120.64H1027.78Q1029.47 117.39 1032.53 114.46Q1035.59 111.53 1040.47 109.65Q1045.34 107.76 1052.24 107.76Q1060.82 107.76 1067.72 111.73Q1074.61 115.69 1078.65 123.04Q1082.68 130.39 1082.68 140.41V141.97Q1082.68 151.99 1078.58 159.34Q1074.48 166.69 1067.59 170.65Q1060.69 174.62 1052.24 174.62ZM1050.42 167.60Q1061.21 167.60 1067.91 160.70Q1074.61 153.81 1074.61 141.71V140.67Q1074.61 128.57 1067.91 121.68Q1061.21 114.78 1050.42 114.78Q1039.75 114.78 1032.99 121.68Q1026.22 128.57 1026.22 140.67V141.71Q1026.22 153.81 1032.99 160.70Q1039.75 167.60 1050.42 167.60Z" fill="#ffffff"/>
</svg>