<?xml version="1.0" encoding="UTF-8"?>
<svg xmlns="http://www.w3.org/2000/svg" width="158" height="36" viewBox="0 0 158 36">
  <title>Kashmir Lab - Wordmark</title>
  
  <path d="M9.31 18.86 18.30 9.81Q18.53 9.57 18.60 9.37Q18.66 9.18 18.53 9.04Q18.41 8.91 18.10 8.83L17.20 8.68Q16.96 8.64 16.87 8.55Q16.78 8.46 16.78 8.34Q16.78 8.18 16.90 8.10Q17.02 8.02 17.26 8.02H21.43Q21.69 8.02 21.80 8.10Q21.91 8.18 21.91 8.34Q21.91 8.48 21.79 8.56Q21.67 8.64 21.29 8.71Q21.06 8.76 20.87 8.83Q20.68 8.89 20.47 9.03Q20.25 9.18 19.97 9.42Q19.69 9.67 19.27 10.07L9.69 19.63ZM13.05 15.60 14.55 14.41 20.63 23.63Q20.88 24.00 21.21 24.19Q21.54 24.39 22.02 24.46Q22.48 24.55 22.62 24.65Q22.75 24.75 22.75 24.89Q22.75 25.03 22.63 25.11Q22.50 25.20 22.26 25.20H17.33Q17.09 25.20 16.97 25.11Q16.85 25.03 16.85 24.88Q16.85 24.75 16.95 24.65Q17.05 24.56 17.27 24.54L18.23 24.39Q18.52 24.33 18.55 24.14Q18.57 23.96 18.37 23.67ZM10.33 23.78Q10.33 24.02 10.48 24.18Q10.63 24.33 10.90 24.38L11.81 24.53Q12.03 24.57 12.12 24.66Q12.21 24.75 12.21 24.88Q12.21 25.03 12.11 25.11Q12.01 25.20 11.76 25.20H6.93Q6.69 25.20 6.59 25.11Q6.48 25.03 6.48 24.88Q6.48 24.61 6.88 24.53L7.81 24.38Q8.10 24.33 8.26 24.18Q8.41 24.02 8.41 23.78V9.45Q8.41 9.20 8.26 9.05Q8.10 8.89 7.81 8.84L6.88 8.70Q6.48 8.61 6.48 8.34Q6.48 8.18 6.59 8.10Q6.69 8.02 6.93 8.02H11.81Q12.06 8.02 12.16 8.10Q12.26 8.18 12.26 8.34Q12.26 8.61 11.86 8.70L10.93 8.84Q10.64 8.89 10.48 9.05Q10.33 9.20 10.33 9.45Z M31.45 23.74V23.52L31.38 23.42V16.72Q31.38 15.46 30.75 14.80Q30.13 14.14 28.96 14.14Q27.82 14.14 27.28 14.60Q26.74 15.07 26.74 15.69V16.53Q26.74 16.98 26.46 17.21Q26.18 17.45 25.70 17.45Q25.28 17.45 25.04 17.19Q24.79 16.94 24.79 16.53Q24.79 15.79 25.34 15.11Q25.88 14.43 26.89 13.99Q27.90 13.56 29.29 13.56Q31.21 13.56 32.15 14.44Q33.09 15.32 33.09 16.78V23.68Q33.09 24.13 33.25 24.32Q33.42 24.51 33.69 24.51Q34.02 24.51 34.15 24.37Q34.29 24.22 34.39 24.07Q34.44 24.00 34.49 23.94Q34.55 23.89 34.64 23.89Q34.74 23.89 34.79 23.96Q34.84 24.03 34.84 24.17Q34.84 24.46 34.65 24.76Q34.46 25.05 34.10 25.26Q33.74 25.46 33.20 25.46Q32.35 25.46 31.90 25.04Q31.45 24.62 31.45 23.74ZM24.20 22.67Q24.20 21.29 25.43 20.37Q26.66 19.46 28.82 19.46Q29.70 19.46 30.45 19.64Q31.20 19.81 31.79 20.07L31.66 20.60Q31.07 20.37 30.44 20.20Q29.80 20.03 29.05 20.03Q27.63 20.03 26.83 20.68Q26.03 21.32 26.03 22.41Q26.03 23.46 26.66 24.02Q27.29 24.59 28.28 24.59Q29.25 24.59 30.15 24.15Q31.06 23.72 31.74 22.87L31.97 23.31Q31.20 24.34 30.05 24.90Q28.90 25.46 27.63 25.46Q26.12 25.46 25.16 24.72Q24.20 23.97 24.20 22.67Z M41.54 24.77Q42.53 24.77 43.12 24.24Q43.71 23.70 43.71 22.83Q43.71 22.29 43.45 21.86Q43.18 21.43 42.53 21.08Q41.87 20.72 40.71 20.40Q39.20 20.02 38.31 19.47Q37.43 18.92 37.06 18.24Q36.68 17.56 36.68 16.76Q36.68 15.33 37.71 14.45Q38.73 13.57 40.61 13.57Q41.32 13.57 41.80 13.70Q42.29 13.83 42.62 13.95Q42.95 14.08 43.20 14.08Q43.43 14.08 43.54 13.95Q43.65 13.83 43.75 13.69Q43.85 13.56 44.04 13.56Q44.15 13.56 44.25 13.63Q44.34 13.70 44.40 13.91L45.38 16.62Q45.48 16.86 45.45 17.02Q45.42 17.19 45.23 17.27Q45.06 17.33 44.93 17.26Q44.80 17.19 44.69 17.02Q44.17 15.94 43.52 15.33Q42.88 14.73 42.15 14.50Q41.43 14.27 40.67 14.27Q39.39 14.27 38.75 14.81Q38.12 15.36 38.12 16.28Q38.12 16.82 38.39 17.27Q38.66 17.73 39.36 18.11Q40.06 18.50 41.31 18.83Q42.72 19.20 43.55 19.70Q44.39 20.19 44.75 20.86Q45.11 21.53 45.11 22.41Q45.11 23.30 44.68 23.99Q44.25 24.68 43.45 25.08Q42.64 25.47 41.54 25.47Q40.84 25.47 40.39 25.31Q39.94 25.15 39.64 25.00Q39.34 24.84 39.06 24.84Q38.84 24.84 38.72 25.00Q38.61 25.15 38.52 25.31Q38.42 25.47 38.25 25.47Q38.14 25.47 38.07 25.40Q37.99 25.32 37.96 25.16L37.38 22.60Q37.31 22.23 37.33 22.06Q37.34 21.89 37.52 21.83Q37.69 21.76 37.81 21.86Q37.93 21.96 38.07 22.23Q38.72 23.57 39.63 24.17Q40.53 24.77 41.54 24.77Z M51.06 7.73V23.79Q51.06 24.07 51.20 24.23Q51.34 24.39 51.60 24.44L52.24 24.56Q52.62 24.66 52.62 24.89Q52.62 25.20 52.18 25.20H48.15Q47.94 25.20 47.83 25.12Q47.72 25.04 47.72 24.91Q47.72 24.78 47.82 24.70Q47.92 24.62 48.12 24.57L48.80 24.44Q49.06 24.38 49.20 24.23Q49.34 24.08 49.34 23.80V9.14Q49.34 8.89 49.25 8.78Q49.16 8.67 48.95 8.66L47.93 8.65Q47.74 8.64 47.66 8.57Q47.58 8.50 47.58 8.40Q47.58 8.28 47.66 8.20Q47.75 8.12 47.97 8.05L49.76 7.45Q50.07 7.33 50.26 7.29Q50.46 7.25 50.60 7.25Q50.83 7.25 50.94 7.37Q51.06 7.49 51.06 7.73ZM50.74 16.64 50.35 16.26 50.94 15.75Q52.30 14.57 53.28 14.07Q54.26 13.56 55.22 13.56Q56.67 13.56 57.45 14.50Q58.23 15.45 58.42 17.08L59.23 23.73Q59.27 24.05 59.41 24.22Q59.55 24.39 59.83 24.45L60.42 24.57Q60.62 24.62 60.72 24.70Q60.82 24.78 60.82 24.91Q60.82 25.04 60.71 25.12Q60.61 25.20 60.39 25.20H56.33Q55.88 25.20 55.88 24.89Q55.88 24.66 56.25 24.56L56.94 24.44Q57.22 24.39 57.38 24.21Q57.54 24.03 57.50 23.73L56.69 17.36Q56.52 16.00 55.97 15.31Q55.42 14.62 54.39 14.62Q53.74 14.62 52.99 15.00Q52.24 15.38 51.31 16.17Z M65.64 14.17V23.79Q65.64 24.07 65.78 24.23Q65.92 24.39 66.18 24.44L66.82 24.56Q67.20 24.66 67.20 24.89Q67.20 25.20 66.75 25.20H62.73Q62.52 25.20 62.41 25.12Q62.30 25.04 62.30 24.91Q62.30 24.78 62.40 24.70Q62.50 24.62 62.69 24.57L63.38 24.44Q63.64 24.38 63.78 24.23Q63.92 24.08 63.92 23.80V15.58Q63.92 15.33 63.83 15.22Q63.74 15.11 63.53 15.10L62.51 15.09Q62.31 15.08 62.23 15.01Q62.15 14.94 62.15 14.83Q62.15 14.72 62.24 14.64Q62.33 14.56 62.55 14.49L64.34 13.87Q64.64 13.78 64.84 13.73Q65.04 13.68 65.17 13.68Q65.40 13.68 65.52 13.81Q65.64 13.94 65.64 14.17ZM65.32 16.64 64.93 16.26 65.52 15.75Q66.90 14.54 67.94 14.05Q68.98 13.56 69.96 13.56Q71.49 13.56 72.41 14.49Q73.33 15.43 73.33 17.08V23.74Q73.33 24.05 73.49 24.22Q73.65 24.39 73.93 24.45L74.52 24.57Q74.89 24.67 74.89 24.89Q74.89 25.20 74.46 25.20H70.45Q69.99 25.20 69.99 24.89Q69.99 24.66 70.37 24.56L71.05 24.44Q71.34 24.39 71.48 24.21Q71.61 24.03 71.61 23.73V17.36Q71.61 15.99 70.93 15.30Q70.24 14.62 69.12 14.62Q68.44 14.62 67.64 14.99Q66.84 15.35 65.88 16.17ZM73.01 16.64 72.62 16.26 73.21 15.75Q74.56 14.57 75.54 14.07Q76.52 13.56 77.45 13.56Q78.91 13.56 79.69 14.50Q80.47 15.45 80.66 17.08L81.48 23.74Q81.52 24.05 81.66 24.22Q81.80 24.39 82.08 24.45L82.67 24.57Q82.87 24.62 82.96 24.70Q83.05 24.78 83.05 24.91Q83.05 25.04 82.95 25.12Q82.85 25.20 82.63 25.20H78.57Q78.13 25.20 78.13 24.89Q78.13 24.66 78.50 24.56L79.18 24.44Q79.47 24.39 79.63 24.21Q79.79 24.03 79.74 23.73L78.94 17.36Q78.77 16.00 78.21 15.31Q77.66 14.62 76.63 14.62Q75.98 14.62 75.24 15.00Q74.50 15.38 73.58 16.17Z M87.88 14.17V23.79Q87.88 24.07 88.02 24.23Q88.17 24.39 88.42 24.44L89.07 24.56Q89.27 24.61 89.37 24.69Q89.48 24.77 89.48 24.91Q89.48 25.04 89.37 25.12Q89.26 25.20 89.04 25.20H84.98Q84.77 25.20 84.66 25.12Q84.56 25.04 84.56 24.91Q84.56 24.78 84.65 24.70Q84.74 24.62 84.94 24.57L85.63 24.44Q85.88 24.38 86.02 24.23Q86.17 24.08 86.17 23.80V15.58Q86.17 15.33 86.08 15.22Q85.99 15.11 85.77 15.10L84.75 15.09Q84.56 15.08 84.48 15.01Q84.40 14.94 84.40 14.83Q84.40 14.72 84.48 14.64Q84.57 14.56 84.79 14.49L86.58 13.87Q86.90 13.78 87.10 13.73Q87.29 13.68 87.42 13.68Q87.65 13.68 87.77 13.81Q87.88 13.94 87.88 14.17ZM86.75 11.00Q86.14 11.00 85.75 10.63Q85.37 10.26 85.37 9.70Q85.37 9.15 85.75 8.78Q86.14 8.41 86.75 8.41Q87.37 8.41 87.76 8.79Q88.15 9.16 88.15 9.70Q88.15 10.26 87.76 10.63Q87.37 11.00 86.75 11.00Z M94.44 18.91Q94.44 17.20 94.96 16.00Q95.49 14.81 96.32 14.18Q97.15 13.56 98.06 13.56Q99.11 13.56 99.69 14.11Q100.28 14.67 100.28 15.59Q100.28 16.18 100.01 16.51Q99.75 16.83 99.33 16.83Q98.90 16.83 98.66 16.58Q98.41 16.33 98.41 15.87V15.49Q98.40 15.04 98.18 14.83Q97.97 14.61 97.47 14.61Q96.84 14.61 96.23 15.10Q95.63 15.59 95.24 16.56Q94.85 17.52 94.85 18.95ZM94.78 14.17 94.85 17.15V23.79Q94.85 24.06 95.00 24.22Q95.15 24.38 95.47 24.41L96.62 24.56Q96.84 24.57 96.95 24.66Q97.06 24.75 97.06 24.91Q97.06 25.04 96.94 25.12Q96.83 25.20 96.62 25.20H91.94Q91.74 25.20 91.63 25.12Q91.52 25.04 91.52 24.91Q91.52 24.78 91.61 24.70Q91.71 24.62 91.91 24.57L92.60 24.44Q92.85 24.39 92.99 24.24Q93.13 24.08 93.13 23.80V15.58Q93.13 15.35 93.04 15.24Q92.95 15.13 92.74 15.11L91.72 15.10Q91.53 15.08 91.45 15.02Q91.37 14.95 91.37 14.84Q91.37 14.73 91.45 14.65Q91.54 14.56 91.76 14.50L93.54 13.90Q93.90 13.76 94.09 13.72Q94.28 13.68 94.39 13.68Q94.58 13.68 94.67 13.80Q94.77 13.91 94.78 14.17Z" fill="#1a1815"/>
  <path d="M112.40 25.20V8.13H113.96V23.79H122.94V25.20Z M129.43 25.54Q128.18 25.54 127.17 25.11Q126.16 24.69 125.57 23.86Q124.99 23.03 124.99 21.86Q124.99 20.66 125.57 19.88Q126.16 19.10 127.16 18.71Q128.16 18.32 129.38 18.32H133.72V17.37Q133.72 15.93 132.89 15.13Q132.06 14.32 130.48 14.32Q128.92 14.32 128.00 15.09Q127.09 15.86 126.77 17.15L125.35 16.74Q125.65 15.69 126.28 14.85Q126.92 14.00 127.96 13.50Q129.01 13.00 130.48 13.00Q132.72 13.00 133.95 14.18Q135.18 15.35 135.18 17.44V23.20Q135.18 23.93 135.87 23.93H137.01V25.20H135.45Q134.70 25.20 134.26 24.75Q133.82 24.30 133.82 23.52V23.35H133.57Q133.26 23.88 132.76 24.40Q132.26 24.91 131.45 25.22Q130.65 25.54 129.43 25.54ZM129.53 24.22Q131.40 24.22 132.56 23.09Q133.72 21.96 133.72 19.88V19.59H129.40Q128.13 19.59 127.29 20.14Q126.45 20.69 126.45 21.83Q126.45 22.98 127.32 23.60Q128.18 24.22 129.53 24.22Z M146.13 25.54Q144.18 25.54 143.10 24.77Q142.01 24.00 141.50 23.03H141.21V25.20H139.79V8.13H141.26V15.42H141.55Q141.87 14.81 142.44 14.26Q143.01 13.71 143.93 13.36Q144.84 13.00 146.13 13.00Q147.74 13.00 149.04 13.75Q150.33 14.49 151.09 15.87Q151.84 17.25 151.84 19.13V19.42Q151.84 21.30 151.07 22.68Q150.31 24.05 149.01 24.80Q147.72 25.54 146.13 25.54ZM145.79 24.22Q147.82 24.22 149.07 22.93Q150.33 21.64 150.33 19.37V19.18Q150.33 16.91 149.07 15.61Q147.82 14.32 145.79 14.32Q143.79 14.32 142.53 15.61Q141.26 16.91 141.26 19.18V19.37Q141.26 21.64 142.53 22.93Q143.79 24.22 145.79 24.22Z" fill="#1a1815"/>
</svg>