<?xml version="1.0" encoding="UTF-8"?>
<svg xmlns="http://www.w3.org/2000/svg" width="208" height="48" viewBox="0 0 208 48">
  <title>Kashmir Lab - Wordmark</title>
  
  <path d="M10.74 25.14 22.73 13.08Q23.04 12.76 23.13 12.50Q23.21 12.23 23.04 12.05Q22.88 11.87 22.47 11.78L21.26 11.58Q20.95 11.51 20.83 11.40Q20.71 11.29 20.71 11.12Q20.71 10.91 20.87 10.80Q21.03 10.70 21.34 10.70H26.91Q27.25 10.70 27.40 10.80Q27.54 10.91 27.54 11.12Q27.54 11.30 27.39 11.41Q27.23 11.51 26.73 11.61Q26.42 11.68 26.16 11.77Q25.91 11.86 25.62 12.05Q25.34 12.23 24.96 12.56Q24.58 12.89 24.03 13.43L11.25 26.17ZM15.73 20.81 17.73 19.22 25.84 31.51Q26.17 32.00 26.61 32.26Q27.05 32.52 27.69 32.62Q28.31 32.73 28.49 32.86Q28.67 32.99 28.67 33.19Q28.67 33.37 28.50 33.49Q28.33 33.60 28.02 33.60H21.44Q21.11 33.60 20.96 33.49Q20.80 33.37 20.80 33.17Q20.80 32.99 20.93 32.87Q21.07 32.75 21.36 32.72L22.64 32.52Q23.03 32.44 23.06 32.19Q23.09 31.95 22.83 31.56ZM12.10 31.70Q12.10 32.03 12.30 32.23Q12.51 32.44 12.87 32.50L14.08 32.70Q14.37 32.77 14.50 32.88Q14.62 32.99 14.62 33.17Q14.62 33.37 14.48 33.49Q14.34 33.60 14.01 33.60H7.57Q7.26 33.60 7.12 33.49Q6.98 33.37 6.98 33.17Q6.98 32.81 7.50 32.70L8.75 32.50Q9.14 32.44 9.34 32.23Q9.55 32.03 9.55 31.70V12.59Q9.55 12.27 9.34 12.06Q9.14 11.86 8.75 11.79L7.50 11.60Q6.98 11.48 6.98 11.12Q6.98 10.91 7.12 10.80Q7.26 10.70 7.57 10.70H14.08Q14.41 10.70 14.55 10.80Q14.69 10.91 14.69 11.12Q14.69 11.48 14.15 11.60L12.90 11.79Q12.53 11.86 12.31 12.06Q12.10 12.27 12.10 12.59Z M40.27 31.65V31.36L40.17 31.23V22.30Q40.17 20.61 39.34 19.73Q38.51 18.86 36.95 18.86Q35.43 18.86 34.71 19.47Q33.99 20.09 33.99 20.92V22.03Q33.99 22.64 33.61 22.95Q33.24 23.26 32.60 23.26Q32.04 23.26 31.72 22.93Q31.39 22.59 31.39 22.03Q31.39 21.05 32.12 20.14Q32.84 19.24 34.19 18.66Q35.53 18.07 37.39 18.07Q39.94 18.07 41.20 19.25Q42.45 20.43 42.45 22.38V31.57Q42.45 32.18 42.67 32.43Q42.89 32.68 43.25 32.68Q43.69 32.68 43.87 32.49Q44.05 32.29 44.18 32.09Q44.25 32.00 44.32 31.92Q44.39 31.85 44.53 31.85Q44.66 31.85 44.72 31.95Q44.79 32.05 44.79 32.23Q44.79 32.62 44.53 33.01Q44.28 33.40 43.80 33.67Q43.31 33.94 42.60 33.94Q41.47 33.94 40.87 33.39Q40.27 32.83 40.27 31.65ZM30.60 30.23Q30.60 28.38 32.24 27.16Q33.88 25.94 36.75 25.94Q37.93 25.94 38.93 26.18Q39.93 26.42 40.71 26.76L40.55 27.47Q39.76 27.15 38.91 26.93Q38.06 26.71 37.07 26.71Q35.17 26.71 34.10 27.57Q33.04 28.43 33.04 29.89Q33.04 31.28 33.88 32.03Q34.73 32.78 36.03 32.78Q37.33 32.78 38.54 32.20Q39.75 31.62 40.65 30.49L40.96 31.08Q39.93 32.45 38.40 33.20Q36.87 33.94 35.17 33.94Q33.16 33.94 31.88 32.95Q30.60 31.96 30.60 30.23Z M53.72 33.03Q55.04 33.03 55.83 32.32Q56.62 31.60 56.62 30.44Q56.62 29.72 56.26 29.15Q55.91 28.58 55.04 28.10Q54.16 27.63 52.61 27.20Q50.60 26.70 49.42 25.96Q48.24 25.22 47.74 24.32Q47.24 23.41 47.24 22.34Q47.24 20.45 48.61 19.27Q49.97 18.09 52.48 18.09Q53.43 18.09 54.07 18.26Q54.72 18.43 55.16 18.61Q55.60 18.78 55.93 18.78Q56.24 18.78 56.39 18.61Q56.53 18.43 56.66 18.25Q56.80 18.07 57.06 18.07Q57.20 18.07 57.33 18.17Q57.45 18.27 57.53 18.55L58.84 22.16Q58.97 22.48 58.93 22.70Q58.89 22.92 58.64 23.03Q58.42 23.11 58.24 23.02Q58.07 22.92 57.92 22.69Q57.22 21.25 56.36 20.45Q55.50 19.64 54.54 19.33Q53.57 19.02 52.56 19.02Q50.86 19.02 50.01 19.75Q49.16 20.48 49.16 21.71Q49.16 22.43 49.52 23.03Q49.88 23.64 50.81 24.15Q51.74 24.67 53.41 25.11Q55.29 25.60 56.40 26.26Q57.52 26.93 58.00 27.82Q58.48 28.71 58.48 29.89Q58.48 31.06 57.91 31.99Q57.34 32.91 56.26 33.44Q55.19 33.96 53.72 33.96Q52.79 33.96 52.19 33.75Q51.59 33.53 51.19 33.33Q50.79 33.13 50.42 33.13Q50.12 33.13 49.97 33.33Q49.81 33.53 49.69 33.75Q49.56 33.96 49.34 33.96Q49.19 33.96 49.09 33.86Q48.99 33.76 48.94 33.55L48.17 30.13Q48.08 29.64 48.10 29.41Q48.12 29.18 48.35 29.10Q48.58 29.02 48.75 29.15Q48.91 29.28 49.09 29.64Q49.96 31.42 51.17 32.23Q52.38 33.03 53.72 33.03Z M66.42 10.30V31.72Q66.42 32.09 66.60 32.31Q66.79 32.52 67.13 32.59L67.99 32.75Q68.49 32.88 68.49 33.19Q68.49 33.60 67.90 33.60H62.54Q62.26 33.60 62.11 33.49Q61.97 33.39 61.97 33.21Q61.97 33.04 62.10 32.94Q62.23 32.83 62.49 32.77L63.40 32.59Q63.75 32.50 63.94 32.31Q64.12 32.11 64.12 31.73V12.18Q64.12 11.86 64.00 11.71Q63.88 11.56 63.60 11.55L62.24 11.53Q61.98 11.51 61.88 11.42Q61.77 11.33 61.77 11.20Q61.77 11.04 61.88 10.93Q62.00 10.83 62.29 10.73L64.68 9.93Q65.09 9.78 65.35 9.72Q65.61 9.67 65.79 9.67Q66.10 9.67 66.26 9.83Q66.42 9.99 66.42 10.30ZM65.99 22.18 65.47 21.67 66.25 21.00Q68.07 19.43 69.38 18.75Q70.69 18.07 71.96 18.07Q73.89 18.07 74.93 19.33Q75.97 20.59 76.23 22.77L77.31 31.64Q77.36 32.06 77.55 32.29Q77.74 32.52 78.11 32.60L78.90 32.77Q79.16 32.83 79.29 32.94Q79.42 33.04 79.42 33.21Q79.42 33.39 79.28 33.49Q79.14 33.60 78.85 33.60H73.43Q72.84 33.60 72.84 33.19Q72.84 32.88 73.34 32.75L74.25 32.59Q74.63 32.52 74.84 32.28Q75.05 32.05 75.00 31.64L73.92 23.15Q73.70 21.33 72.96 20.41Q72.22 19.50 70.85 19.50Q69.98 19.50 68.98 20.00Q67.99 20.51 66.74 21.56Z M85.85 18.89V31.72Q85.85 32.09 86.04 32.31Q86.23 32.52 86.57 32.59L87.42 32.75Q87.93 32.88 87.93 33.19Q87.93 33.60 87.34 33.60H81.97Q81.70 33.60 81.55 33.49Q81.40 33.39 81.40 33.21Q81.40 33.04 81.53 32.94Q81.66 32.83 81.92 32.77L82.84 32.59Q83.18 32.50 83.37 32.31Q83.56 32.11 83.56 31.73V20.77Q83.56 20.45 83.44 20.30Q83.31 20.15 83.04 20.14L81.68 20.12Q81.42 20.10 81.31 20.01Q81.20 19.92 81.20 19.78Q81.20 19.63 81.32 19.52Q81.43 19.42 81.73 19.32L84.12 18.50Q84.53 18.37 84.79 18.30Q85.05 18.24 85.23 18.24Q85.54 18.24 85.70 18.41Q85.85 18.58 85.85 18.89ZM85.43 22.18 84.90 21.67 85.69 21.00Q87.54 19.38 88.92 18.73Q90.30 18.07 91.61 18.07Q93.65 18.07 94.88 19.33Q96.11 20.58 96.11 22.77V31.65Q96.11 32.06 96.32 32.29Q96.53 32.52 96.91 32.60L97.70 32.77Q98.19 32.90 98.19 33.19Q98.19 33.60 97.61 33.60H92.26Q91.66 33.60 91.66 33.19Q91.66 32.88 92.17 32.75L93.07 32.59Q93.46 32.52 93.64 32.28Q93.82 32.05 93.82 31.64V23.15Q93.82 21.31 92.90 20.41Q91.99 19.50 90.50 19.50Q89.58 19.50 88.52 19.98Q87.45 20.46 86.18 21.56ZM95.68 22.18 95.16 21.67 95.94 21.00Q97.74 19.43 99.05 18.75Q100.36 18.07 101.61 18.07Q103.55 18.07 104.59 19.33Q105.63 20.59 105.88 22.77L106.97 31.65Q107.02 32.06 107.21 32.29Q107.40 32.52 107.77 32.60L108.56 32.77Q108.82 32.83 108.94 32.94Q109.07 33.04 109.07 33.21Q109.07 33.39 108.93 33.49Q108.80 33.60 108.51 33.60H103.09Q102.51 33.60 102.51 33.19Q102.51 32.88 103.00 32.75L103.91 32.59Q104.29 32.52 104.50 32.28Q104.71 32.05 104.65 31.64L103.58 23.15Q103.36 21.33 102.62 20.41Q101.88 19.50 100.51 19.50Q99.64 19.50 98.65 20.00Q97.66 20.51 96.44 21.56Z M115.51 18.89V31.72Q115.51 32.09 115.70 32.31Q115.89 32.52 116.23 32.59L117.10 32.75Q117.36 32.81 117.50 32.92Q117.64 33.03 117.64 33.21Q117.64 33.39 117.49 33.49Q117.34 33.60 117.05 33.60H111.63Q111.36 33.60 111.22 33.49Q111.08 33.39 111.08 33.21Q111.08 33.04 111.20 32.94Q111.32 32.83 111.58 32.77L112.50 32.59Q112.84 32.50 113.03 32.31Q113.22 32.11 113.22 31.73V20.77Q113.22 20.45 113.11 20.30Q112.99 20.15 112.70 20.14L111.34 20.12Q111.08 20.10 110.97 20.01Q110.87 19.92 110.87 19.78Q110.87 19.63 110.98 19.52Q111.09 19.42 111.39 19.32L113.78 18.50Q114.20 18.37 114.46 18.30Q114.73 18.24 114.89 18.24Q115.20 18.24 115.36 18.41Q115.51 18.58 115.51 18.89ZM114.01 14.67Q113.19 14.67 112.67 14.17Q112.16 13.67 112.16 12.94Q112.16 12.20 112.67 11.71Q113.19 11.22 114.01 11.22Q114.82 11.22 115.35 11.72Q115.87 12.22 115.87 12.94Q115.87 13.67 115.35 14.17Q114.82 14.67 114.01 14.67Z M124.25 25.21Q124.25 22.93 124.95 21.34Q125.65 19.74 126.76 18.91Q127.86 18.07 129.07 18.07Q130.48 18.07 131.26 18.82Q132.03 19.56 132.03 20.79Q132.03 21.58 131.68 22.01Q131.33 22.44 130.78 22.44Q130.20 22.44 129.88 22.11Q129.55 21.77 129.55 21.17V20.66Q129.53 20.05 129.25 19.77Q128.96 19.48 128.29 19.48Q127.45 19.48 126.64 20.14Q125.83 20.79 125.32 22.07Q124.80 23.36 124.80 25.27ZM124.71 18.89 124.80 22.87V31.72Q124.80 32.08 125.00 32.29Q125.20 32.50 125.62 32.55L127.16 32.75Q127.45 32.77 127.60 32.88Q127.75 32.99 127.75 33.21Q127.75 33.39 127.59 33.49Q127.44 33.60 127.16 33.60H120.93Q120.65 33.60 120.50 33.49Q120.35 33.39 120.35 33.21Q120.35 33.04 120.48 32.94Q120.62 32.83 120.88 32.77L121.79 32.59Q122.14 32.52 122.33 32.32Q122.51 32.11 122.51 31.73V20.77Q122.51 20.46 122.39 20.32Q122.27 20.17 121.99 20.15L120.63 20.14Q120.37 20.10 120.26 20.02Q120.16 19.94 120.16 19.79Q120.16 19.64 120.27 19.53Q120.39 19.42 120.68 19.33L123.05 18.53Q123.53 18.35 123.78 18.30Q124.03 18.24 124.18 18.24Q124.44 18.24 124.57 18.39Q124.69 18.55 124.71 18.89Z" fill="#1a1815"/>
  <path d="M148.20 33.60V10.84H150.29V31.71H162.25V33.60Z M170.90 34.06Q169.24 34.06 167.90 33.49Q166.55 32.92 165.77 31.81Q164.98 30.71 164.98 29.14Q164.98 27.55 165.77 26.51Q166.55 25.47 167.88 24.95Q169.21 24.43 170.84 24.43H176.63V23.16Q176.63 21.24 175.52 20.17Q174.42 19.10 172.30 19.10Q170.22 19.10 169.00 20.12Q167.78 21.14 167.36 22.87L165.47 22.32Q165.86 20.92 166.71 19.80Q167.55 18.67 168.95 18.01Q170.35 17.34 172.30 17.34Q175.29 17.34 176.94 18.90Q178.58 20.46 178.58 23.26V30.93Q178.58 31.91 179.49 31.91H181.02V33.60H178.94Q177.93 33.60 177.34 33.00Q176.76 32.40 176.76 31.36V31.13H176.43Q176.01 31.84 175.34 32.53Q174.68 33.21 173.60 33.63Q172.53 34.06 170.90 34.06ZM171.03 32.30Q173.54 32.30 175.08 30.79Q176.63 29.27 176.63 26.51V26.12H170.87Q169.18 26.12 168.06 26.85Q166.94 27.58 166.94 29.11Q166.94 30.64 168.09 31.47Q169.24 32.30 171.03 32.30Z M193.18 34.06Q190.58 34.06 189.13 33.03Q187.68 32.01 187.00 30.71H186.61V33.60H184.72V10.84H186.68V20.56H187.07Q187.49 19.75 188.25 19.01Q189.02 18.28 190.24 17.81Q191.46 17.34 193.18 17.34Q195.33 17.34 197.05 18.33Q198.77 19.32 199.78 21.16Q200.79 23.00 200.79 25.50V25.89Q200.79 28.40 199.77 30.23Q198.74 32.07 197.02 33.06Q195.29 34.06 193.18 34.06ZM192.72 32.30Q195.42 32.30 197.10 30.58Q198.77 28.85 198.77 25.83V25.57Q198.77 22.54 197.10 20.82Q195.42 19.10 192.72 19.10Q190.06 19.10 188.37 20.82Q186.68 22.54 186.68 25.57V25.83Q186.68 28.85 188.37 30.58Q190.06 32.30 192.72 32.30Z" fill="#1a1815"/>
</svg>