<?xml version="1.0" encoding="UTF-8"?>
<svg xmlns="http://www.w3.org/2000/svg" width="406" height="96" viewBox="0 0 406 96">
  <title>Kashmir Lab - Wordmark</title>
  <path d="M16.48 50.28 40.47 26.17Q41.09 25.51 41.25 24.99Q41.42 24.47 41.09 24.11Q40.76 23.75 39.94 23.55L37.52 23.16Q36.90 23.03 36.66 22.80Q36.41 22.57 36.41 22.24Q36.41 21.82 36.74 21.60Q37.07 21.39 37.69 21.39H48.81Q49.50 21.39 49.79 21.60Q50.09 21.82 50.09 22.24Q50.09 22.60 49.78 22.82Q49.47 23.03 48.45 23.22Q47.83 23.36 47.32 23.54Q46.82 23.72 46.24 24.09Q45.67 24.47 44.92 25.12Q44.17 25.78 43.05 26.86L17.50 52.35ZM26.46 41.61 30.46 38.44 46.69 63.01Q47.34 63.99 48.22 64.52Q49.11 65.04 50.38 65.24Q51.63 65.47 51.99 65.73Q52.35 65.99 52.35 66.38Q52.35 66.74 52.00 66.97Q51.66 67.20 51.04 67.20H37.88Q37.23 67.20 36.92 66.97Q36.61 66.74 36.61 66.35Q36.61 65.99 36.87 65.74Q37.13 65.50 37.72 65.43L40.27 65.04Q41.06 64.88 41.12 64.39Q41.19 63.90 40.66 63.11ZM19.20 63.40Q19.20 64.06 19.61 64.47Q20.02 64.88 20.74 65.01L23.16 65.40Q23.75 65.53 23.99 65.76Q24.24 65.99 24.24 66.35Q24.24 66.74 23.96 66.97Q23.68 67.20 23.03 67.20H10.14Q9.52 67.20 9.24 66.97Q8.96 66.74 8.96 66.35Q8.96 65.63 10.01 65.40L12.49 65.01Q13.28 64.88 13.69 64.47Q14.10 64.06 14.10 63.40V25.19Q14.10 24.53 13.69 24.12Q13.28 23.72 12.49 23.58L10.01 23.19Q8.96 22.96 8.96 22.24Q8.96 21.82 9.24 21.60Q9.52 21.39 10.14 21.39H23.16Q23.81 21.39 24.09 21.60Q24.37 21.82 24.37 22.24Q24.37 22.96 23.29 23.19L20.80 23.58Q20.05 23.72 19.63 24.12Q19.20 24.53 19.20 25.19Z M75.54 63.31V62.72L75.35 62.46V44.59Q75.35 41.22 73.68 39.47Q72.01 37.72 68.90 37.72Q65.86 37.72 64.42 38.95Q62.98 40.17 62.98 41.84V44.07Q62.98 45.28 62.23 45.90Q61.47 46.52 60.20 46.52Q59.09 46.52 58.43 45.85Q57.78 45.18 57.78 44.07Q57.78 42.10 59.23 40.29Q60.69 38.47 63.37 37.31Q66.06 36.15 69.79 36.15Q74.89 36.15 77.39 38.50Q79.90 40.86 79.90 44.75V63.14Q79.90 64.35 80.34 64.86Q80.78 65.37 81.50 65.37Q82.38 65.37 82.74 64.98Q83.10 64.58 83.36 64.19Q83.49 63.99 83.64 63.85Q83.79 63.70 84.05 63.70Q84.31 63.70 84.44 63.90Q84.57 64.09 84.57 64.45Q84.57 65.24 84.07 66.02Q83.56 66.81 82.60 67.35Q81.63 67.89 80.19 67.89Q77.93 67.89 76.74 66.77Q75.54 65.66 75.54 63.31ZM56.21 60.46Q56.21 56.76 59.48 54.32Q62.75 51.89 68.51 51.89Q70.87 51.89 72.86 52.36Q74.86 52.84 76.43 53.52L76.10 54.93Q74.53 54.31 72.83 53.87Q71.13 53.42 69.13 53.42Q65.34 53.42 63.21 55.14Q61.08 56.86 61.08 59.77Q61.08 62.55 62.77 64.06Q64.45 65.56 67.07 65.56Q69.65 65.56 72.08 64.40Q74.50 63.24 76.30 60.98L76.92 62.16Q74.86 64.91 71.80 66.40Q68.74 67.89 65.34 67.89Q61.31 67.89 58.76 65.91Q56.21 63.93 56.21 60.46Z M102.44 66.05Q105.09 66.05 106.66 64.63Q108.23 63.21 108.23 60.89Q108.23 59.45 107.53 58.30Q106.82 57.16 105.07 56.21Q103.32 55.26 100.21 54.41Q96.19 53.39 93.83 51.92Q91.48 50.45 90.48 48.63Q89.48 46.82 89.48 44.69Q89.48 40.89 92.21 38.54Q94.95 36.18 99.95 36.18Q101.85 36.18 103.14 36.53Q104.44 36.87 105.32 37.21Q106.20 37.56 106.86 37.56Q107.48 37.56 107.77 37.21Q108.07 36.87 108.33 36.51Q108.59 36.15 109.11 36.15Q109.41 36.15 109.65 36.35Q109.90 36.54 110.06 37.10L112.68 44.33Q112.94 44.95 112.86 45.39Q112.78 45.83 112.29 46.06Q111.83 46.23 111.49 46.03Q111.14 45.83 110.85 45.38Q109.44 42.50 107.72 40.89Q106.01 39.29 104.08 38.67Q102.15 38.05 100.12 38.05Q96.71 38.05 95.01 39.50Q93.31 40.96 93.31 43.41Q93.31 44.85 94.03 46.06Q94.75 47.27 96.62 48.30Q98.48 49.33 101.82 50.22Q105.58 51.20 107.81 52.53Q110.03 53.85 111.00 55.63Q111.96 57.42 111.96 59.77Q111.96 62.13 110.82 63.98Q109.67 65.83 107.53 66.87Q105.38 67.92 102.44 67.92Q100.57 67.92 99.38 67.49Q98.19 67.07 97.38 66.66Q96.58 66.25 95.83 66.25Q95.24 66.25 94.93 66.66Q94.62 67.07 94.37 67.49Q94.13 67.92 93.67 67.92Q93.38 67.92 93.18 67.72Q92.98 67.53 92.89 67.10L91.35 60.26Q91.15 59.28 91.20 58.82Q91.25 58.37 91.71 58.20Q92.17 58.04 92.49 58.30Q92.82 58.56 93.18 59.28Q94.91 62.85 97.34 64.45Q99.76 66.05 102.44 66.05Z M127.83 20.61V63.44Q127.83 64.19 128.21 64.62Q128.58 65.04 129.27 65.17L130.97 65.50Q131.99 65.76 131.99 66.38Q131.99 67.20 130.81 67.20H120.08Q119.52 67.20 119.22 66.99Q118.93 66.77 118.93 66.41Q118.93 66.09 119.19 65.87Q119.45 65.66 119.98 65.53L121.81 65.17Q122.50 65.01 122.87 64.62Q123.25 64.22 123.25 63.47V24.37Q123.25 23.72 123.00 23.42Q122.76 23.13 122.20 23.09L119.49 23.06Q118.96 23.03 118.75 22.85Q118.54 22.67 118.54 22.41Q118.54 22.08 118.77 21.87Q119.00 21.65 119.58 21.46L124.36 19.85Q125.18 19.56 125.70 19.45Q126.23 19.33 126.59 19.33Q127.21 19.33 127.52 19.66Q127.83 19.99 127.83 20.61ZM126.98 44.36 125.93 43.35 127.50 42.01Q131.13 38.86 133.75 37.51Q136.37 36.15 138.92 36.15Q142.78 36.15 144.86 38.67Q146.94 41.19 147.46 45.54L149.62 63.27Q149.72 64.12 150.10 64.58Q150.47 65.04 151.22 65.20L152.80 65.53Q153.32 65.66 153.58 65.87Q153.84 66.09 153.84 66.41Q153.84 66.77 153.56 66.99Q153.29 67.20 152.70 67.20H141.87Q140.69 67.20 140.69 66.38Q140.69 65.76 141.67 65.50L143.50 65.17Q144.26 65.04 144.68 64.57Q145.11 64.09 145.01 63.27L142.85 46.29Q142.39 42.66 140.92 40.83Q139.45 39.00 136.70 39.00Q134.96 39.00 132.97 40.01Q130.97 41.02 128.48 43.12Z M166.70 37.78V63.44Q166.70 64.19 167.08 64.62Q167.45 65.04 168.14 65.17L169.84 65.50Q170.86 65.76 170.86 66.38Q170.86 67.20 169.68 67.20H158.95Q158.39 67.20 158.10 66.99Q157.80 66.77 157.80 66.41Q157.80 66.09 158.06 65.87Q158.33 65.66 158.85 65.53L160.68 65.17Q161.37 65.01 161.74 64.62Q162.12 64.22 162.12 63.47V41.55Q162.12 40.89 161.88 40.60Q161.63 40.30 161.07 40.27L158.36 40.24Q157.83 40.21 157.62 40.03Q157.41 39.85 157.41 39.55Q157.41 39.26 157.64 39.04Q157.87 38.83 158.46 38.64L163.23 37.00Q164.05 36.74 164.57 36.61Q165.10 36.48 165.46 36.48Q166.08 36.48 166.39 36.82Q166.70 37.16 166.70 37.78ZM165.85 44.36 164.80 43.35 166.37 42.01Q170.07 38.77 172.84 37.46Q175.60 36.15 178.22 36.15Q182.31 36.15 184.76 38.65Q187.22 41.16 187.22 45.54V63.31Q187.22 64.12 187.64 64.58Q188.07 65.04 188.82 65.20L190.39 65.53Q191.37 65.79 191.37 66.38Q191.37 67.20 190.23 67.20H179.53Q178.32 67.20 178.32 66.38Q178.32 65.76 179.33 65.50L181.13 65.17Q181.92 65.04 182.28 64.57Q182.64 64.09 182.64 63.27V46.29Q182.64 42.63 180.80 40.81Q178.97 39.00 175.99 39.00Q174.16 39.00 172.03 39.96Q169.91 40.93 167.36 43.12ZM186.37 44.36 185.32 43.35 186.89 42.01Q190.49 38.86 193.11 37.51Q195.72 36.15 198.21 36.15Q202.10 36.15 204.18 38.67Q206.26 41.19 206.75 45.54L208.94 63.31Q209.04 64.12 209.42 64.58Q209.79 65.04 210.55 65.20L212.12 65.53Q212.64 65.66 212.89 65.87Q213.13 66.09 213.13 66.41Q213.13 66.77 212.87 66.99Q212.61 67.20 212.02 67.20H201.19Q200.01 67.20 200.01 66.38Q200.01 65.76 200.99 65.50L202.82 65.17Q203.58 65.04 204.00 64.57Q204.43 64.09 204.30 63.27L202.17 46.29Q201.71 42.66 200.24 40.83Q198.77 39.00 196.02 39.00Q194.28 39.00 192.30 40.01Q190.33 41.02 187.87 43.12Z M226.02 37.78V63.44Q226.02 64.19 226.40 64.62Q226.78 65.04 227.46 65.17L229.20 65.50Q229.72 65.63 230.00 65.84Q230.28 66.05 230.28 66.41Q230.28 66.77 229.98 66.99Q229.69 67.20 229.10 67.20H218.27Q217.71 67.20 217.43 66.99Q217.16 66.77 217.16 66.41Q217.16 66.09 217.40 65.87Q217.65 65.66 218.17 65.53L220.00 65.17Q220.69 65.01 221.07 64.62Q221.44 64.22 221.44 63.47V41.55Q221.44 40.89 221.21 40.60Q220.98 40.30 220.39 40.27L217.68 40.24Q217.16 40.21 216.94 40.03Q216.73 39.85 216.73 39.55Q216.73 39.26 216.96 39.04Q217.19 38.83 217.78 38.64L222.55 37.00Q223.40 36.74 223.93 36.61Q224.45 36.48 224.78 36.48Q225.40 36.48 225.71 36.82Q226.02 37.16 226.02 37.78ZM223.01 29.34Q221.38 29.34 220.35 28.35Q219.31 27.35 219.31 25.87Q219.31 24.40 220.35 23.42Q221.38 22.44 223.01 22.44Q224.65 22.44 225.70 23.44Q226.74 24.44 226.74 25.87Q226.74 27.35 225.70 28.35Q224.65 29.34 223.01 29.34Z M243.49 50.41Q243.49 45.87 244.90 42.68Q246.31 39.49 248.52 37.82Q250.73 36.15 253.15 36.15Q255.96 36.15 257.52 37.64Q259.07 39.13 259.07 41.58Q259.07 43.15 258.37 44.02Q257.66 44.89 256.55 44.89Q255.40 44.89 254.75 44.21Q254.10 43.54 254.10 42.33V41.32Q254.06 40.11 253.49 39.54Q252.92 38.96 251.58 38.96Q249.91 38.96 248.29 40.27Q246.67 41.58 245.64 44.15Q244.61 46.72 244.61 50.55ZM244.41 37.78 244.61 45.74V63.44Q244.61 64.16 245.00 64.58Q245.39 65.01 246.24 65.11L249.32 65.50Q249.91 65.53 250.20 65.76Q250.50 65.99 250.50 66.41Q250.50 66.77 250.19 66.99Q249.88 67.20 249.32 67.20H236.85Q236.30 67.20 236.00 66.99Q235.71 66.77 235.71 66.41Q235.71 66.09 235.97 65.87Q236.23 65.66 236.75 65.53L238.59 65.17Q239.27 65.04 239.65 64.63Q240.03 64.22 240.03 63.47V41.55Q240.03 40.93 239.78 40.63Q239.54 40.34 238.98 40.30L236.26 40.27Q235.74 40.21 235.53 40.04Q235.31 39.88 235.31 39.58Q235.31 39.29 235.54 39.06Q235.77 38.83 236.36 38.67L241.11 37.07Q242.06 36.71 242.56 36.59Q243.07 36.48 243.36 36.48Q243.89 36.48 244.13 36.79Q244.38 37.10 244.41 37.78Z" fill="#d4c4ae"/>
  <path d="M291.02 67.20V21.67H296.48V62.26H319.51V67.20Z M336.48 68.11Q333.16 68.11 330.43 66.94Q327.70 65.77 326.14 63.56Q324.58 61.35 324.58 58.16Q324.58 54.91 326.14 52.79Q327.70 50.68 330.43 49.61Q333.16 48.53 336.55 48.53H347.28V46.19Q347.28 42.81 345.29 40.86Q343.31 38.91 339.41 38.91Q335.57 38.91 333.42 40.76Q331.28 42.61 330.50 45.74L325.68 44.18Q326.47 41.51 328.16 39.33Q329.85 37.15 332.68 35.82Q335.51 34.48 339.47 34.48Q345.59 34.48 348.97 37.64Q352.35 40.79 352.35 46.52V60.89Q352.35 62.84 354.17 62.84H357.10V67.20H352.61Q350.47 67.20 349.16 66.00Q347.86 64.79 347.86 62.78V62.45H347.08Q346.37 63.69 345.16 65.02Q343.96 66.35 341.88 67.23Q339.80 68.11 336.48 68.11ZM337.07 63.69Q341.62 63.69 344.45 60.99Q347.28 58.29 347.28 53.41V52.70H336.74Q333.68 52.70 331.70 54.03Q329.72 55.36 329.72 58.03Q329.72 60.70 331.77 62.19Q333.81 63.69 337.07 63.69Z M381.75 68.11Q376.81 68.11 374.04 66.22Q371.28 64.34 370.04 61.93H369.13V67.20H364.12V21.67H369.26V40.40H370.17Q370.95 38.91 372.38 37.57Q373.81 36.24 376.12 35.36Q378.43 34.48 381.75 34.48Q385.91 34.48 389.33 36.47Q392.74 38.45 394.76 42.13Q396.77 45.80 396.77 50.87V51.72Q396.77 56.79 394.73 60.50Q392.68 64.21 389.26 66.16Q385.85 68.11 381.75 68.11ZM380.38 63.56Q385.33 63.56 388.42 60.40Q391.51 57.25 391.51 51.59V51.00Q391.51 45.35 388.42 42.19Q385.33 39.04 380.38 39.04Q375.51 39.04 372.35 42.19Q369.20 45.35 369.20 51.00V51.59Q369.20 57.25 372.35 60.40Q375.51 63.56 380.38 63.56Z" fill="#d4c4ae"/>
</svg>